%TF.GenerationSoftware,KiCad,Pcbnew,(5.1.6)-1*%
%TF.CreationDate,2020-10-14T18:33:49+03:00*%
%TF.ProjectId,aplx6.rev2,61706c78-362e-4726-9576-322e6b696361,rev?*%
%TF.SameCoordinates,Original*%
%TF.FileFunction,Copper,L2,Bot*%
%TF.FilePolarity,Positive*%
%FSLAX46Y46*%
G04 Gerber Fmt 4.6, Leading zero omitted, Abs format (unit mm)*
G04 Created by KiCad (PCBNEW (5.1.6)-1) date 2020-10-14 18:33:49*
%MOMM*%
%LPD*%
G01*
G04 APERTURE LIST*
%TA.AperFunction,ComponentPad*%
%ADD10C,1.752600*%
%TD*%
%TA.AperFunction,ComponentPad*%
%ADD11C,2.200000*%
%TD*%
%TA.AperFunction,ComponentPad*%
%ADD12C,0.100000*%
%TD*%
%TA.AperFunction,ComponentPad*%
%ADD13C,1.651000*%
%TD*%
%TA.AperFunction,ComponentPad*%
%ADD14C,2.000000*%
%TD*%
%TA.AperFunction,WasherPad*%
%ADD15R,3.200000X2.000000*%
%TD*%
%TA.AperFunction,ComponentPad*%
%ADD16R,2.000000X2.000000*%
%TD*%
%TA.AperFunction,SMDPad,CuDef*%
%ADD17R,1.700000X1.000000*%
%TD*%
%TA.AperFunction,ComponentPad*%
%ADD18C,1.397000*%
%TD*%
%TA.AperFunction,Conductor*%
%ADD19R,0.500000X2.900000*%
%TD*%
%TA.AperFunction,SMDPad,CuDef*%
%ADD20R,1.200000X1.500000*%
%TD*%
%TA.AperFunction,ComponentPad*%
%ADD21C,1.600000*%
%TD*%
%TA.AperFunction,ComponentPad*%
%ADD22C,3.000000*%
%TD*%
%TA.AperFunction,ViaPad*%
%ADD23C,0.800000*%
%TD*%
%TA.AperFunction,Conductor*%
%ADD24C,0.250000*%
%TD*%
%TA.AperFunction,Conductor*%
%ADD25C,0.400000*%
%TD*%
%TA.AperFunction,Conductor*%
%ADD26C,0.254000*%
%TD*%
G04 APERTURE END LIST*
D10*
%TO.P,U1,1*%
%TO.N,Net-(U1-Pad1)*%
X125730000Y-62970000D03*
%TO.P,U1,2*%
%TO.N,Net-(U1-Pad2)*%
X125730000Y-65510000D03*
%TO.P,U1,3*%
%TO.N,GND*%
X125730000Y-68050000D03*
%TO.P,U1,4*%
X125730000Y-70590000D03*
%TO.P,U1,5*%
%TO.N,SDA*%
X125730000Y-73130000D03*
%TO.P,U1,6*%
%TO.N,SCL*%
X125730000Y-75670000D03*
%TO.P,U1,7*%
%TO.N,Net-(U1-Pad7)*%
X125730000Y-78210000D03*
%TO.P,U1,8*%
%TO.N,col0*%
X125730000Y-80750000D03*
%TO.P,U1,9*%
%TO.N,col1*%
X125730000Y-83290000D03*
%TO.P,U1,10*%
%TO.N,col2*%
X125730000Y-85830000D03*
%TO.P,U1,11*%
%TO.N,row0*%
X125730000Y-88370000D03*
%TO.P,U1,13*%
%TO.N,Net-(U1-Pad13)*%
X110490000Y-90910000D03*
%TO.P,U1,14*%
%TO.N,Net-(U1-Pad14)*%
X110490000Y-88370000D03*
%TO.P,U1,15*%
%TO.N,Net-(U1-Pad15)*%
X110490000Y-85830000D03*
%TO.P,U1,16*%
%TO.N,Net-(U1-Pad16)*%
X110490000Y-83290000D03*
%TO.P,U1,17*%
%TO.N,Net-(U1-Pad17)*%
X110490000Y-80750000D03*
%TO.P,U1,18*%
%TO.N,Net-(U1-Pad18)*%
X110490000Y-78210000D03*
%TO.P,U1,19*%
%TO.N,ENC_B*%
X110490000Y-75670000D03*
%TO.P,U1,20*%
%TO.N,ENC_A*%
X110490000Y-73130000D03*
%TO.P,U1,21*%
%TO.N,VCC*%
X110490000Y-70590000D03*
%TO.P,U1,22*%
%TO.N,RESET*%
X110490000Y-68050000D03*
%TO.P,U1,23*%
%TO.N,GND*%
X110490000Y-65510000D03*
%TO.P,U1,12*%
%TO.N,row1*%
X125730000Y-90910000D03*
%TO.P,U1,24*%
%TO.N,Net-(U1-Pad24)*%
X110490000Y-62970000D03*
%TD*%
D11*
%TO.P,SW3,2*%
%TO.N,Net-(D3-Pad2)*%
X154150000Y-72540000D03*
%TO.P,SW3,1*%
%TO.N,col1*%
X160500000Y-70000000D03*
%TD*%
%TO.P,SW1,2*%
%TO.N,Net-(D1-Pad2)*%
X134550000Y-72540000D03*
%TO.P,SW1,1*%
%TO.N,col0*%
X140900000Y-70000000D03*
%TD*%
%TA.AperFunction,ComponentPad*%
D12*
%TO.P,D3,2*%
%TO.N,Net-(D3-Pad2)*%
G36*
X139903540Y-62725074D02*
G01*
X140330850Y-64319818D01*
X138736106Y-64747128D01*
X138308796Y-63152384D01*
X139903540Y-62725074D01*
G37*
%TD.AperFunction*%
D13*
%TO.P,D3,1*%
%TO.N,row0*%
X146680177Y-61763899D03*
%TD*%
%TA.AperFunction,ComponentPad*%
D12*
%TO.P,D5,2*%
%TO.N,Net-(D5-Pad2)*%
G36*
X150203540Y-62713074D02*
G01*
X150630850Y-64307818D01*
X149036106Y-64735128D01*
X148608796Y-63140384D01*
X150203540Y-62713074D01*
G37*
%TD.AperFunction*%
D13*
%TO.P,D5,1*%
%TO.N,row0*%
X156980177Y-61751899D03*
%TD*%
%TA.AperFunction,ComponentPad*%
D12*
%TO.P,D2,2*%
%TO.N,Net-(D2-Pad2)*%
G36*
X159352429Y-62713074D02*
G01*
X159779739Y-64307818D01*
X158184995Y-64735128D01*
X157757685Y-63140384D01*
X159352429Y-62713074D01*
G37*
%TD.AperFunction*%
D13*
%TO.P,D2,1*%
%TO.N,row1*%
X166129066Y-61751899D03*
%TD*%
%TA.AperFunction,ComponentPad*%
D12*
%TO.P,D4,2*%
%TO.N,Net-(D4-Pad2)*%
G36*
X169753540Y-62713074D02*
G01*
X170180850Y-64307818D01*
X168586106Y-64735128D01*
X168158796Y-63140384D01*
X169753540Y-62713074D01*
G37*
%TD.AperFunction*%
D13*
%TO.P,D4,1*%
%TO.N,row1*%
X176530177Y-61751899D03*
%TD*%
%TA.AperFunction,ComponentPad*%
D12*
%TO.P,D6,2*%
%TO.N,Net-(D6-Pad2)*%
G36*
X179148540Y-62713074D02*
G01*
X179575850Y-64307818D01*
X177981106Y-64735128D01*
X177553796Y-63140384D01*
X179148540Y-62713074D01*
G37*
%TD.AperFunction*%
D13*
%TO.P,D6,1*%
%TO.N,row1*%
X185925177Y-61751899D03*
%TD*%
%TA.AperFunction,ComponentPad*%
D12*
%TO.P,D1,2*%
%TO.N,Net-(D1-Pad2)*%
G36*
X130634540Y-62713074D02*
G01*
X131061850Y-64307818D01*
X129467106Y-64735128D01*
X129039796Y-63140384D01*
X130634540Y-62713074D01*
G37*
%TD.AperFunction*%
D13*
%TO.P,D1,1*%
%TO.N,row0*%
X137411177Y-61751899D03*
%TD*%
D14*
%TO.P,SW5,S1*%
%TO.N,Net-(D5-Pad2)*%
X170546000Y-72557000D03*
%TO.P,SW5,S2*%
%TO.N,col2*%
X170546000Y-77557000D03*
D15*
%TO.P,SW5,*%
%TO.N,*%
X177546000Y-69457000D03*
X177546000Y-80657000D03*
D14*
%TO.P,SW5,B*%
%TO.N,ENC_B*%
X185046000Y-72557000D03*
%TO.P,SW5,C*%
%TO.N,GND*%
X185046000Y-75057000D03*
D16*
%TO.P,SW5,A*%
%TO.N,ENC_A*%
X185046000Y-77557000D03*
%TD*%
D11*
%TO.P,SW6,2*%
%TO.N,Net-(D6-Pad2)*%
X173750000Y-92240000D03*
%TO.P,SW6,1*%
%TO.N,col2*%
X180100000Y-89700000D03*
%TD*%
%TO.P,SW2,2*%
%TO.N,Net-(D2-Pad2)*%
X134550000Y-92140000D03*
%TO.P,SW2,1*%
%TO.N,col0*%
X140900000Y-89600000D03*
%TD*%
%TO.P,SW4,2*%
%TO.N,Net-(D4-Pad2)*%
X154150000Y-92140000D03*
%TO.P,SW4,1*%
%TO.N,col1*%
X160500000Y-89600000D03*
%TD*%
D17*
%TO.P,SW7,3*%
%TO.N,RESET*%
X115214000Y-102484000D03*
%TO.P,SW7,4*%
X121514000Y-102484000D03*
%TO.P,SW7,1*%
%TO.N,GND*%
X115214000Y-98684000D03*
%TO.P,SW7,2*%
X121514000Y-98684000D03*
%TD*%
D18*
%TO.P,J1,4*%
%TO.N,GND*%
X122428000Y-95504000D03*
%TO.P,J1,3*%
%TO.N,VCC*%
X119888000Y-95504000D03*
%TO.P,J1,2*%
%TO.N,SCL*%
X117348000Y-95504000D03*
%TO.P,J1,1*%
%TO.N,SDA*%
X114808000Y-95504000D03*
%TD*%
D19*
%TO.N,SCL*%
%TO.C,R1*%
X125857000Y-101941000D03*
D20*
%TD*%
%TO.P,R1,2*%
%TO.N,SCL*%
X125857000Y-100791000D03*
%TO.P,R1,1*%
%TO.N,VCC*%
X125857000Y-98091000D03*
D19*
%TD*%
%TO.N,VCC*%
%TO.C,R1*%
X125857000Y-96941000D03*
D21*
%TO.P,R1,2*%
%TO.N,SCL*%
X125857000Y-103341000D03*
%TO.P,R1,1*%
%TO.N,VCC*%
X125857000Y-95541000D03*
%TD*%
%TO.P,R2,1*%
%TO.N,VCC*%
X110490000Y-95541000D03*
%TO.P,R2,2*%
%TO.N,SDA*%
X110490000Y-103341000D03*
D19*
%TD*%
%TO.N,VCC*%
%TO.C,R2*%
X110490000Y-96941000D03*
D20*
%TO.P,R2,1*%
%TO.N,VCC*%
X110490000Y-98091000D03*
%TO.P,R2,2*%
%TO.N,SDA*%
X110490000Y-100791000D03*
D19*
%TD*%
%TO.N,SDA*%
%TO.C,R2*%
X110490000Y-101941000D03*
D22*
%TO.P,U4,*%
%TO.N,*%
X189650000Y-103000000D03*
%TD*%
%TO.P,U4,*%
%TO.N,*%
X189450000Y-61550000D03*
%TD*%
%TO.P,U4,*%
%TO.N,*%
X106850000Y-103000000D03*
%TD*%
%TO.P,U4,*%
%TO.N,*%
X106950000Y-61500000D03*
%TD*%
D23*
%TO.N,SDA*%
X114808000Y-88455500D03*
%TO.N,SCL*%
X117040000Y-80572000D03*
%TO.N,GND*%
X118046500Y-102235000D03*
X112712500Y-98615500D03*
X144907000Y-65532000D03*
X155829000Y-65532000D03*
X172466000Y-68961000D03*
X167513000Y-69850000D03*
X130810000Y-81915000D03*
X170561000Y-75057000D03*
X118745000Y-75565000D03*
X121412000Y-85915500D03*
X118237000Y-85979000D03*
%TO.N,ENC_A*%
X132918200Y-99237800D03*
X113690400Y-88392000D03*
%TO.N,ENC_B*%
X136067800Y-100050600D03*
X112522000Y-88392000D03*
%TO.N,RESET*%
X115824000Y-78486000D03*
%TD*%
D24*
%TO.N,Net-(D1-Pad2)*%
X130050823Y-64366423D02*
X130050823Y-63724101D01*
X134550000Y-68865600D02*
X130050823Y-64366423D01*
X134550000Y-72540000D02*
X134550000Y-68865600D01*
%TO.N,row0*%
X137411177Y-61751899D02*
X156980177Y-61751899D01*
%TO.N,Net-(D2-Pad2)*%
X162331400Y-67286789D02*
X158768712Y-63724101D01*
X172364400Y-87706200D02*
X172364400Y-71374000D01*
X172364400Y-71374000D02*
X168277189Y-67286789D01*
X152984200Y-90144600D02*
X155219400Y-90144600D01*
X168630600Y-91440000D02*
X172364400Y-87706200D01*
X155219400Y-90144600D02*
X156514800Y-91440000D01*
X168277189Y-67286789D02*
X162331400Y-67286789D01*
X156514800Y-91440000D02*
X168630600Y-91440000D01*
X134550000Y-92140000D02*
X150988800Y-92140000D01*
X150988800Y-92140000D02*
X152984200Y-90144600D01*
%TO.N,row1*%
X166129066Y-61751899D02*
X185925177Y-61751899D01*
%TO.N,Net-(D3-Pad2)*%
X143808122Y-68224400D02*
X139319823Y-63736101D01*
X154150000Y-72540000D02*
X154150000Y-70228400D01*
X152146000Y-68224400D02*
X143808122Y-68224400D01*
X154150000Y-70228400D02*
X152146000Y-68224400D01*
%TO.N,Net-(D4-Pad2)*%
X169169823Y-67163423D02*
X169169823Y-63724101D01*
X169169823Y-67392023D02*
X169169823Y-67163423D01*
X154150000Y-92140000D02*
X168946600Y-92140000D01*
X173050200Y-71272400D02*
X169169823Y-67392023D01*
X168946600Y-92140000D02*
X173050200Y-88036400D01*
X173050200Y-88036400D02*
X173050200Y-71272400D01*
%TO.N,Net-(D5-Pad2)*%
X154247122Y-68351400D02*
X149619823Y-63724101D01*
X162941000Y-68351400D02*
X154247122Y-68351400D01*
X167146600Y-72557000D02*
X162941000Y-68351400D01*
X170546000Y-72557000D02*
X167146600Y-72557000D01*
%TO.N,Net-(D6-Pad2)*%
X173750000Y-68538924D02*
X178564823Y-63724101D01*
X173750000Y-92240000D02*
X173750000Y-68538924D01*
%TO.N,SDA*%
X114500000Y-95500000D02*
X117500400Y-98500400D01*
X117500400Y-98500400D02*
X117500400Y-100025200D01*
X110490000Y-103341000D02*
X112739000Y-101092000D01*
X116433600Y-101092000D02*
X117500400Y-100025200D01*
X112739000Y-101092000D02*
X116433600Y-101092000D01*
X114808000Y-88455500D02*
X114744500Y-88455500D01*
%TO.N,SCL*%
X119126000Y-97586000D02*
X119126000Y-100228400D01*
X119126000Y-100228400D02*
X120116600Y-101219000D01*
X117040000Y-95500000D02*
X119126000Y-97586000D01*
X120116600Y-101219000D02*
X123735000Y-101219000D01*
X123735000Y-101219000D02*
X125857000Y-103341000D01*
X117040000Y-80572000D02*
X117040000Y-80572000D01*
X117040000Y-95196000D02*
X117348000Y-95504000D01*
X117040000Y-80572000D02*
X117040000Y-95196000D01*
%TO.N,SDA*%
X114808000Y-95504000D02*
X114808000Y-88455500D01*
D25*
%TO.N,VCC*%
X119580000Y-95500000D02*
X119580000Y-79680000D01*
X119580000Y-79680000D02*
X110490000Y-70590000D01*
D24*
%TO.N,col0*%
X125730000Y-80750000D02*
X131956400Y-80750000D01*
X140900000Y-70000000D02*
X140900000Y-89600000D01*
X131956400Y-80750000D02*
X140806400Y-89600000D01*
X140806400Y-89600000D02*
X140900000Y-89600000D01*
%TO.N,col1*%
X131118200Y-83290000D02*
X138988800Y-91160600D01*
X125730000Y-83290000D02*
X131118200Y-83290000D01*
X150495000Y-91160600D02*
X138988800Y-91160600D01*
X155625800Y-88849200D02*
X152806400Y-88849200D01*
X152806400Y-88849200D02*
X150495000Y-91160600D01*
X156376600Y-89600000D02*
X155625800Y-88849200D01*
X160500000Y-89600000D02*
X156376600Y-89600000D01*
X160500000Y-70000000D02*
X160500000Y-89600000D01*
%TO.N,ENC_A*%
X133985000Y-99237800D02*
X132918200Y-99237800D01*
X185039000Y-95859600D02*
X181679200Y-99219400D01*
X181660800Y-99237800D02*
X133985000Y-99237800D01*
X185046000Y-77557000D02*
X185046000Y-95827200D01*
X113690400Y-88392000D02*
X113690400Y-88392000D01*
X113690400Y-76330400D02*
X113690400Y-88392000D01*
X110490000Y-73130000D02*
X113690400Y-76330400D01*
%TO.N,ENC_B*%
X181940200Y-100050600D02*
X136067800Y-100050600D01*
X186029600Y-95961200D02*
X181940200Y-100050600D01*
X186817000Y-78740000D02*
X186029600Y-79527400D01*
X186029600Y-79527400D02*
X186029600Y-95961200D01*
X186817000Y-78740000D02*
X186817000Y-74328000D01*
X186817000Y-74328000D02*
X185046000Y-72557000D01*
X112522000Y-88392000D02*
X112522000Y-88392000D01*
X110490000Y-75670000D02*
X112522000Y-77702000D01*
X112522000Y-77702000D02*
X112522000Y-88392000D01*
%TO.N,RESET*%
X115150000Y-102407000D02*
X116769600Y-102407000D01*
X121450000Y-102407000D02*
X119896000Y-102407000D01*
X118332800Y-98405400D02*
X118332800Y-98393800D01*
X119896000Y-102407000D02*
X118332800Y-100843800D01*
X118332800Y-98405400D02*
X118332800Y-100843800D01*
X118332800Y-100843800D02*
X116769600Y-102407000D01*
X115824000Y-78486000D02*
X115824000Y-78486000D01*
X118332800Y-98203300D02*
X116078000Y-95948500D01*
X118332800Y-98405400D02*
X118332800Y-98203300D01*
X115824000Y-78486000D02*
X115824000Y-94615000D01*
X116078000Y-94869000D02*
X116078000Y-95948500D01*
X115824000Y-94615000D02*
X116078000Y-94869000D01*
%TD*%
D26*
%TO.N,GND*%
G36*
X113738188Y-101859518D02*
G01*
X113725928Y-101984000D01*
X113725928Y-102984000D01*
X113738188Y-103108482D01*
X113774498Y-103228180D01*
X113833463Y-103338494D01*
X113912815Y-103435185D01*
X114009506Y-103514537D01*
X114119820Y-103573502D01*
X114239518Y-103609812D01*
X114364000Y-103622072D01*
X116064000Y-103622072D01*
X116188482Y-103609812D01*
X116308180Y-103573502D01*
X116418494Y-103514537D01*
X116515185Y-103435185D01*
X116594537Y-103338494D01*
X116653502Y-103228180D01*
X116672061Y-103167000D01*
X116732278Y-103167000D01*
X116769600Y-103170676D01*
X116806922Y-103167000D01*
X116806933Y-103167000D01*
X116918586Y-103156003D01*
X117061847Y-103112546D01*
X117193876Y-103041974D01*
X117309601Y-102947001D01*
X117333404Y-102917997D01*
X118332800Y-101918602D01*
X119332201Y-102918003D01*
X119355999Y-102947001D01*
X119471724Y-103041974D01*
X119603753Y-103112546D01*
X119747014Y-103156003D01*
X119858667Y-103167000D01*
X119858675Y-103167000D01*
X119896000Y-103170676D01*
X119933325Y-103167000D01*
X120055939Y-103167000D01*
X120074498Y-103228180D01*
X120133463Y-103338494D01*
X120212815Y-103435185D01*
X120309506Y-103514537D01*
X120419820Y-103573502D01*
X120539518Y-103609812D01*
X120664000Y-103622072D01*
X122364000Y-103622072D01*
X122488482Y-103609812D01*
X122608180Y-103573502D01*
X122718494Y-103514537D01*
X122815185Y-103435185D01*
X122894537Y-103338494D01*
X122953502Y-103228180D01*
X122989812Y-103108482D01*
X123002072Y-102984000D01*
X123002072Y-101984000D01*
X123001580Y-101979000D01*
X123420199Y-101979000D01*
X124458312Y-103017114D01*
X124422000Y-103199665D01*
X124422000Y-103482335D01*
X124477147Y-103759574D01*
X124585320Y-104020727D01*
X124742363Y-104255759D01*
X124876604Y-104390000D01*
X111470396Y-104390000D01*
X111604637Y-104255759D01*
X111761680Y-104020727D01*
X111869853Y-103759574D01*
X111925000Y-103482335D01*
X111925000Y-103199665D01*
X111888688Y-103017114D01*
X113053802Y-101852000D01*
X113740469Y-101852000D01*
X113738188Y-101859518D01*
G37*
X113738188Y-101859518D02*
X113725928Y-101984000D01*
X113725928Y-102984000D01*
X113738188Y-103108482D01*
X113774498Y-103228180D01*
X113833463Y-103338494D01*
X113912815Y-103435185D01*
X114009506Y-103514537D01*
X114119820Y-103573502D01*
X114239518Y-103609812D01*
X114364000Y-103622072D01*
X116064000Y-103622072D01*
X116188482Y-103609812D01*
X116308180Y-103573502D01*
X116418494Y-103514537D01*
X116515185Y-103435185D01*
X116594537Y-103338494D01*
X116653502Y-103228180D01*
X116672061Y-103167000D01*
X116732278Y-103167000D01*
X116769600Y-103170676D01*
X116806922Y-103167000D01*
X116806933Y-103167000D01*
X116918586Y-103156003D01*
X117061847Y-103112546D01*
X117193876Y-103041974D01*
X117309601Y-102947001D01*
X117333404Y-102917997D01*
X118332800Y-101918602D01*
X119332201Y-102918003D01*
X119355999Y-102947001D01*
X119471724Y-103041974D01*
X119603753Y-103112546D01*
X119747014Y-103156003D01*
X119858667Y-103167000D01*
X119858675Y-103167000D01*
X119896000Y-103170676D01*
X119933325Y-103167000D01*
X120055939Y-103167000D01*
X120074498Y-103228180D01*
X120133463Y-103338494D01*
X120212815Y-103435185D01*
X120309506Y-103514537D01*
X120419820Y-103573502D01*
X120539518Y-103609812D01*
X120664000Y-103622072D01*
X122364000Y-103622072D01*
X122488482Y-103609812D01*
X122608180Y-103573502D01*
X122718494Y-103514537D01*
X122815185Y-103435185D01*
X122894537Y-103338494D01*
X122953502Y-103228180D01*
X122989812Y-103108482D01*
X123002072Y-102984000D01*
X123002072Y-101984000D01*
X123001580Y-101979000D01*
X123420199Y-101979000D01*
X124458312Y-103017114D01*
X124422000Y-103199665D01*
X124422000Y-103482335D01*
X124477147Y-103759574D01*
X124585320Y-104020727D01*
X124742363Y-104255759D01*
X124876604Y-104390000D01*
X111470396Y-104390000D01*
X111604637Y-104255759D01*
X111761680Y-104020727D01*
X111869853Y-103759574D01*
X111925000Y-103482335D01*
X111925000Y-103199665D01*
X111888688Y-103017114D01*
X113053802Y-101852000D01*
X113740469Y-101852000D01*
X113738188Y-101859518D01*
G36*
X187791637Y-60189017D02*
G01*
X187557988Y-60538698D01*
X187397047Y-60927244D01*
X187321580Y-61306643D01*
X187219456Y-61060093D01*
X187059622Y-60820884D01*
X186856192Y-60617454D01*
X186616983Y-60457620D01*
X186351189Y-60347525D01*
X186069024Y-60291399D01*
X185781330Y-60291399D01*
X185499165Y-60347525D01*
X185233371Y-60457620D01*
X184994162Y-60617454D01*
X184790732Y-60820884D01*
X184676464Y-60991899D01*
X177778890Y-60991899D01*
X177664622Y-60820884D01*
X177461192Y-60617454D01*
X177221983Y-60457620D01*
X176956189Y-60347525D01*
X176674024Y-60291399D01*
X176386330Y-60291399D01*
X176104165Y-60347525D01*
X175838371Y-60457620D01*
X175599162Y-60617454D01*
X175395732Y-60820884D01*
X175281464Y-60991899D01*
X167377779Y-60991899D01*
X167263511Y-60820884D01*
X167060081Y-60617454D01*
X166820872Y-60457620D01*
X166555078Y-60347525D01*
X166272913Y-60291399D01*
X165985219Y-60291399D01*
X165703054Y-60347525D01*
X165437260Y-60457620D01*
X165198051Y-60617454D01*
X164994621Y-60820884D01*
X164834787Y-61060093D01*
X164724692Y-61325887D01*
X164668566Y-61608052D01*
X164668566Y-61895746D01*
X164724692Y-62177911D01*
X164834787Y-62443705D01*
X164994621Y-62682914D01*
X165198051Y-62886344D01*
X165437260Y-63046178D01*
X165703054Y-63156273D01*
X165985219Y-63212399D01*
X166272913Y-63212399D01*
X166555078Y-63156273D01*
X166820872Y-63046178D01*
X167060081Y-62886344D01*
X167263511Y-62682914D01*
X167377779Y-62511899D01*
X168039014Y-62511899D01*
X167993651Y-62524054D01*
X167876584Y-62568115D01*
X167770362Y-62634167D01*
X167679068Y-62719674D01*
X167606210Y-62821348D01*
X167554586Y-62935282D01*
X167526183Y-63057099D01*
X167522090Y-63182116D01*
X167542466Y-63305529D01*
X167969776Y-64900273D01*
X168013837Y-65017340D01*
X168079889Y-65123562D01*
X168165396Y-65214856D01*
X168267070Y-65287714D01*
X168381004Y-65339338D01*
X168409824Y-65346058D01*
X168409823Y-66536175D01*
X168314522Y-66526789D01*
X168314511Y-66526789D01*
X168277189Y-66523113D01*
X168239867Y-66526789D01*
X162646202Y-66526789D01*
X160415464Y-64296052D01*
X160416445Y-64266086D01*
X160396069Y-64142673D01*
X159968759Y-62547929D01*
X159924698Y-62430862D01*
X159858646Y-62324640D01*
X159773139Y-62233346D01*
X159671465Y-62160488D01*
X159557531Y-62108864D01*
X159435714Y-62080461D01*
X159310697Y-62076368D01*
X159187284Y-62096744D01*
X158322152Y-62328555D01*
X158384551Y-62177911D01*
X158440677Y-61895746D01*
X158440677Y-61608052D01*
X158384551Y-61325887D01*
X158274456Y-61060093D01*
X158114622Y-60820884D01*
X157911192Y-60617454D01*
X157671983Y-60457620D01*
X157406189Y-60347525D01*
X157124024Y-60291399D01*
X156836330Y-60291399D01*
X156554165Y-60347525D01*
X156288371Y-60457620D01*
X156049162Y-60617454D01*
X155845732Y-60820884D01*
X155731464Y-60991899D01*
X147920872Y-60991899D01*
X147814622Y-60832884D01*
X147611192Y-60629454D01*
X147371983Y-60469620D01*
X147106189Y-60359525D01*
X146824024Y-60303399D01*
X146536330Y-60303399D01*
X146254165Y-60359525D01*
X145988371Y-60469620D01*
X145749162Y-60629454D01*
X145545732Y-60832884D01*
X145439482Y-60991899D01*
X138659890Y-60991899D01*
X138545622Y-60820884D01*
X138342192Y-60617454D01*
X138102983Y-60457620D01*
X137837189Y-60347525D01*
X137555024Y-60291399D01*
X137267330Y-60291399D01*
X136985165Y-60347525D01*
X136719371Y-60457620D01*
X136480162Y-60617454D01*
X136276732Y-60820884D01*
X136116898Y-61060093D01*
X136006803Y-61325887D01*
X135950677Y-61608052D01*
X135950677Y-61895746D01*
X136006803Y-62177911D01*
X136116898Y-62443705D01*
X136276732Y-62682914D01*
X136480162Y-62886344D01*
X136719371Y-63046178D01*
X136985165Y-63156273D01*
X137267330Y-63212399D01*
X137555024Y-63212399D01*
X137672255Y-63189080D01*
X137672090Y-63194116D01*
X137692466Y-63317529D01*
X138119776Y-64912273D01*
X138163837Y-65029340D01*
X138229889Y-65135562D01*
X138315396Y-65226856D01*
X138417070Y-65299714D01*
X138531004Y-65351338D01*
X138652821Y-65379741D01*
X138777838Y-65383834D01*
X138901251Y-65363458D01*
X139667155Y-65158235D01*
X143244322Y-68735402D01*
X143268121Y-68764401D01*
X143383846Y-68859374D01*
X143515875Y-68929946D01*
X143659136Y-68973403D01*
X143770789Y-68984400D01*
X143770798Y-68984400D01*
X143808121Y-68988076D01*
X143845444Y-68984400D01*
X151831199Y-68984400D01*
X153390001Y-70543203D01*
X153390001Y-70976851D01*
X153328169Y-71002463D01*
X153044002Y-71192337D01*
X152802337Y-71434002D01*
X152612463Y-71718169D01*
X152481675Y-72033919D01*
X152415000Y-72369117D01*
X152415000Y-72710883D01*
X152481675Y-73046081D01*
X152612463Y-73361831D01*
X152768261Y-73595000D01*
X152733740Y-73595000D01*
X152446842Y-73652068D01*
X152176589Y-73764010D01*
X151933368Y-73926525D01*
X151726525Y-74133368D01*
X151564010Y-74376589D01*
X151452068Y-74646842D01*
X151395000Y-74933740D01*
X151395000Y-75226260D01*
X151452068Y-75513158D01*
X151564010Y-75783411D01*
X151726525Y-76026632D01*
X151933368Y-76233475D01*
X152176589Y-76395990D01*
X152446842Y-76507932D01*
X152733740Y-76565000D01*
X153026260Y-76565000D01*
X153313158Y-76507932D01*
X153583411Y-76395990D01*
X153826632Y-76233475D01*
X154033475Y-76026632D01*
X154195990Y-75783411D01*
X154307932Y-75513158D01*
X154365000Y-75226260D01*
X154365000Y-74933740D01*
X154307932Y-74646842D01*
X154195990Y-74376589D01*
X154128110Y-74275000D01*
X154320883Y-74275000D01*
X154656081Y-74208325D01*
X154971831Y-74077537D01*
X155255998Y-73887663D01*
X155497663Y-73645998D01*
X155687537Y-73361831D01*
X155818325Y-73046081D01*
X155885000Y-72710883D01*
X155885000Y-72369117D01*
X155818325Y-72033919D01*
X155687537Y-71718169D01*
X155497663Y-71434002D01*
X155255998Y-71192337D01*
X154971831Y-71002463D01*
X154910000Y-70976852D01*
X154910000Y-70265722D01*
X154913676Y-70228400D01*
X154910000Y-70191077D01*
X154910000Y-70191067D01*
X154899003Y-70079414D01*
X154855546Y-69936153D01*
X154810038Y-69851014D01*
X154784974Y-69804123D01*
X154713799Y-69717397D01*
X154690001Y-69688399D01*
X154661003Y-69664601D01*
X154096225Y-69099823D01*
X154098136Y-69100403D01*
X154209789Y-69111400D01*
X154209799Y-69111400D01*
X154247121Y-69115076D01*
X154284444Y-69111400D01*
X159007077Y-69111400D01*
X158962463Y-69178169D01*
X158831675Y-69493919D01*
X158765000Y-69829117D01*
X158765000Y-70170883D01*
X158831675Y-70506081D01*
X158962463Y-70821831D01*
X159152337Y-71105998D01*
X159394002Y-71347663D01*
X159678169Y-71537537D01*
X159740000Y-71563148D01*
X159740000Y-73133547D01*
X159639715Y-73033262D01*
X159208141Y-72744893D01*
X158728601Y-72546261D01*
X158219525Y-72445000D01*
X157700475Y-72445000D01*
X157191399Y-72546261D01*
X156711859Y-72744893D01*
X156280285Y-73033262D01*
X155913262Y-73400285D01*
X155624893Y-73831859D01*
X155426261Y-74311399D01*
X155325000Y-74820475D01*
X155325000Y-75339525D01*
X155426261Y-75848601D01*
X155624893Y-76328141D01*
X155913262Y-76759715D01*
X156280285Y-77126738D01*
X156711859Y-77415107D01*
X157191399Y-77613739D01*
X157700475Y-77715000D01*
X158219525Y-77715000D01*
X158728601Y-77613739D01*
X159208141Y-77415107D01*
X159639715Y-77126738D01*
X159740000Y-77026453D01*
X159740001Y-88036851D01*
X159678169Y-88062463D01*
X159394002Y-88252337D01*
X159152337Y-88494002D01*
X158962463Y-88778169D01*
X158936852Y-88840000D01*
X156691402Y-88840000D01*
X156189603Y-88338202D01*
X156165801Y-88309199D01*
X156050076Y-88214226D01*
X155918047Y-88143654D01*
X155774786Y-88100197D01*
X155663133Y-88089200D01*
X155663122Y-88089200D01*
X155625800Y-88085524D01*
X155588478Y-88089200D01*
X152843722Y-88089200D01*
X152806399Y-88085524D01*
X152769076Y-88089200D01*
X152769067Y-88089200D01*
X152657414Y-88100197D01*
X152514153Y-88143654D01*
X152382124Y-88214226D01*
X152266399Y-88309199D01*
X152242601Y-88338197D01*
X150180199Y-90400600D01*
X142446331Y-90400600D01*
X142568325Y-90106081D01*
X142635000Y-89770883D01*
X142635000Y-89429117D01*
X142568325Y-89093919D01*
X142437537Y-88778169D01*
X142247663Y-88494002D01*
X142005998Y-88252337D01*
X141721831Y-88062463D01*
X141660000Y-88036852D01*
X141660000Y-74933740D01*
X141955000Y-74933740D01*
X141955000Y-75226260D01*
X142012068Y-75513158D01*
X142124010Y-75783411D01*
X142286525Y-76026632D01*
X142493368Y-76233475D01*
X142736589Y-76395990D01*
X143006842Y-76507932D01*
X143293740Y-76565000D01*
X143586260Y-76565000D01*
X143873158Y-76507932D01*
X144143411Y-76395990D01*
X144386632Y-76233475D01*
X144593475Y-76026632D01*
X144755990Y-75783411D01*
X144867932Y-75513158D01*
X144925000Y-75226260D01*
X144925000Y-74933740D01*
X144867932Y-74646842D01*
X144755990Y-74376589D01*
X144593475Y-74133368D01*
X144386632Y-73926525D01*
X144143411Y-73764010D01*
X143873158Y-73652068D01*
X143586260Y-73595000D01*
X143293740Y-73595000D01*
X143006842Y-73652068D01*
X142736589Y-73764010D01*
X142493368Y-73926525D01*
X142286525Y-74133368D01*
X142124010Y-74376589D01*
X142012068Y-74646842D01*
X141955000Y-74933740D01*
X141660000Y-74933740D01*
X141660000Y-71563148D01*
X141721831Y-71537537D01*
X142005998Y-71347663D01*
X142247663Y-71105998D01*
X142437537Y-70821831D01*
X142568325Y-70506081D01*
X142635000Y-70170883D01*
X142635000Y-69829117D01*
X142568325Y-69493919D01*
X142437537Y-69178169D01*
X142247663Y-68894002D01*
X142005998Y-68652337D01*
X141721831Y-68462463D01*
X141406081Y-68331675D01*
X141070883Y-68265000D01*
X140729117Y-68265000D01*
X140393919Y-68331675D01*
X140078169Y-68462463D01*
X139794002Y-68652337D01*
X139552337Y-68894002D01*
X139362463Y-69178169D01*
X139231675Y-69493919D01*
X139165000Y-69829117D01*
X139165000Y-70170883D01*
X139231675Y-70506081D01*
X139362463Y-70821831D01*
X139552337Y-71105998D01*
X139794002Y-71347663D01*
X140078169Y-71537537D01*
X140140000Y-71563148D01*
X140140000Y-73133547D01*
X140039715Y-73033262D01*
X139608141Y-72744893D01*
X139128601Y-72546261D01*
X138619525Y-72445000D01*
X138100475Y-72445000D01*
X137591399Y-72546261D01*
X137111859Y-72744893D01*
X136680285Y-73033262D01*
X136313262Y-73400285D01*
X136024893Y-73831859D01*
X135826261Y-74311399D01*
X135725000Y-74820475D01*
X135725000Y-75339525D01*
X135826261Y-75848601D01*
X136024893Y-76328141D01*
X136313262Y-76759715D01*
X136680285Y-77126738D01*
X137111859Y-77415107D01*
X137591399Y-77613739D01*
X138100475Y-77715000D01*
X138619525Y-77715000D01*
X139128601Y-77613739D01*
X139608141Y-77415107D01*
X140039715Y-77126738D01*
X140140000Y-77026453D01*
X140140001Y-87858799D01*
X132520204Y-80239003D01*
X132496401Y-80209999D01*
X132380676Y-80115026D01*
X132248647Y-80044454D01*
X132105386Y-80000997D01*
X131993733Y-79990000D01*
X131993722Y-79990000D01*
X131956400Y-79986324D01*
X131919078Y-79990000D01*
X127039810Y-79990000D01*
X126903904Y-79786602D01*
X126693398Y-79576096D01*
X126549580Y-79480000D01*
X126693398Y-79383904D01*
X126903904Y-79173398D01*
X127069297Y-78925869D01*
X127183222Y-78650830D01*
X127241300Y-78358850D01*
X127241300Y-78061150D01*
X127183222Y-77769170D01*
X127069297Y-77494131D01*
X126903904Y-77246602D01*
X126693398Y-77036096D01*
X126549580Y-76940000D01*
X126693398Y-76843904D01*
X126903904Y-76633398D01*
X127069297Y-76385869D01*
X127183222Y-76110830D01*
X127241300Y-75818850D01*
X127241300Y-75521150D01*
X127183222Y-75229170D01*
X127069297Y-74954131D01*
X126903904Y-74706602D01*
X126693398Y-74496096D01*
X126549580Y-74400000D01*
X126693398Y-74303904D01*
X126903904Y-74093398D01*
X127069297Y-73845869D01*
X127183222Y-73570830D01*
X127241300Y-73278850D01*
X127241300Y-72981150D01*
X127183222Y-72689170D01*
X127069297Y-72414131D01*
X126903904Y-72166602D01*
X126693398Y-71956096D01*
X126530191Y-71847045D01*
X126597563Y-71637169D01*
X125730000Y-70769605D01*
X124862437Y-71637169D01*
X124929809Y-71847045D01*
X124766602Y-71956096D01*
X124556096Y-72166602D01*
X124390703Y-72414131D01*
X124276778Y-72689170D01*
X124218700Y-72981150D01*
X124218700Y-73278850D01*
X124276778Y-73570830D01*
X124390703Y-73845869D01*
X124556096Y-74093398D01*
X124766602Y-74303904D01*
X124910420Y-74400000D01*
X124766602Y-74496096D01*
X124556096Y-74706602D01*
X124390703Y-74954131D01*
X124276778Y-75229170D01*
X124218700Y-75521150D01*
X124218700Y-75818850D01*
X124276778Y-76110830D01*
X124390703Y-76385869D01*
X124556096Y-76633398D01*
X124766602Y-76843904D01*
X124910420Y-76940000D01*
X124766602Y-77036096D01*
X124556096Y-77246602D01*
X124390703Y-77494131D01*
X124276778Y-77769170D01*
X124218700Y-78061150D01*
X124218700Y-78358850D01*
X124276778Y-78650830D01*
X124390703Y-78925869D01*
X124556096Y-79173398D01*
X124766602Y-79383904D01*
X124910420Y-79480000D01*
X124766602Y-79576096D01*
X124556096Y-79786602D01*
X124390703Y-80034131D01*
X124276778Y-80309170D01*
X124218700Y-80601150D01*
X124218700Y-80898850D01*
X124276778Y-81190830D01*
X124390703Y-81465869D01*
X124556096Y-81713398D01*
X124766602Y-81923904D01*
X124910420Y-82020000D01*
X124766602Y-82116096D01*
X124556096Y-82326602D01*
X124390703Y-82574131D01*
X124276778Y-82849170D01*
X124218700Y-83141150D01*
X124218700Y-83438850D01*
X124276778Y-83730830D01*
X124390703Y-84005869D01*
X124556096Y-84253398D01*
X124766602Y-84463904D01*
X124910420Y-84560000D01*
X124766602Y-84656096D01*
X124556096Y-84866602D01*
X124390703Y-85114131D01*
X124276778Y-85389170D01*
X124218700Y-85681150D01*
X124218700Y-85978850D01*
X124276778Y-86270830D01*
X124390703Y-86545869D01*
X124556096Y-86793398D01*
X124766602Y-87003904D01*
X124910420Y-87100000D01*
X124766602Y-87196096D01*
X124556096Y-87406602D01*
X124390703Y-87654131D01*
X124276778Y-87929170D01*
X124218700Y-88221150D01*
X124218700Y-88518850D01*
X124276778Y-88810830D01*
X124390703Y-89085869D01*
X124556096Y-89333398D01*
X124766602Y-89543904D01*
X124910420Y-89640000D01*
X124766602Y-89736096D01*
X124556096Y-89946602D01*
X124390703Y-90194131D01*
X124276778Y-90469170D01*
X124218700Y-90761150D01*
X124218700Y-91058850D01*
X124276778Y-91350830D01*
X124390703Y-91625869D01*
X124556096Y-91873398D01*
X124766602Y-92083904D01*
X125014131Y-92249297D01*
X125289170Y-92363222D01*
X125581150Y-92421300D01*
X125878850Y-92421300D01*
X126170830Y-92363222D01*
X126445869Y-92249297D01*
X126693398Y-92083904D01*
X126903904Y-91873398D01*
X127069297Y-91625869D01*
X127183222Y-91350830D01*
X127241300Y-91058850D01*
X127241300Y-90761150D01*
X127183222Y-90469170D01*
X127069297Y-90194131D01*
X126903904Y-89946602D01*
X126693398Y-89736096D01*
X126549580Y-89640000D01*
X126693398Y-89543904D01*
X126903904Y-89333398D01*
X127069297Y-89085869D01*
X127183222Y-88810830D01*
X127241300Y-88518850D01*
X127241300Y-88221150D01*
X127183222Y-87929170D01*
X127069297Y-87654131D01*
X126903904Y-87406602D01*
X126693398Y-87196096D01*
X126549580Y-87100000D01*
X126693398Y-87003904D01*
X126903904Y-86793398D01*
X127069297Y-86545869D01*
X127183222Y-86270830D01*
X127241300Y-85978850D01*
X127241300Y-85681150D01*
X127183222Y-85389170D01*
X127069297Y-85114131D01*
X126903904Y-84866602D01*
X126693398Y-84656096D01*
X126549580Y-84560000D01*
X126693398Y-84463904D01*
X126903904Y-84253398D01*
X127039810Y-84050000D01*
X130803399Y-84050000D01*
X138133398Y-91380000D01*
X136113148Y-91380000D01*
X136087537Y-91318169D01*
X135897663Y-91034002D01*
X135655998Y-90792337D01*
X135371831Y-90602463D01*
X135056081Y-90471675D01*
X134720883Y-90405000D01*
X134379117Y-90405000D01*
X134043919Y-90471675D01*
X133728169Y-90602463D01*
X133444002Y-90792337D01*
X133202337Y-91034002D01*
X133012463Y-91318169D01*
X132881675Y-91633919D01*
X132815000Y-91969117D01*
X132815000Y-92310883D01*
X132881675Y-92646081D01*
X133012463Y-92961831D01*
X133168261Y-93195000D01*
X133133740Y-93195000D01*
X132846842Y-93252068D01*
X132576589Y-93364010D01*
X132333368Y-93526525D01*
X132126525Y-93733368D01*
X131964010Y-93976589D01*
X131852068Y-94246842D01*
X131795000Y-94533740D01*
X131795000Y-94826260D01*
X131852068Y-95113158D01*
X131964010Y-95383411D01*
X132126525Y-95626632D01*
X132333368Y-95833475D01*
X132576589Y-95995990D01*
X132846842Y-96107932D01*
X133133740Y-96165000D01*
X133426260Y-96165000D01*
X133713158Y-96107932D01*
X133983411Y-95995990D01*
X134226632Y-95833475D01*
X134433475Y-95626632D01*
X134595990Y-95383411D01*
X134707932Y-95113158D01*
X134765000Y-94826260D01*
X134765000Y-94533740D01*
X134707932Y-94246842D01*
X134595990Y-93976589D01*
X134528110Y-93875000D01*
X134720883Y-93875000D01*
X135056081Y-93808325D01*
X135371831Y-93677537D01*
X135655998Y-93487663D01*
X135897663Y-93245998D01*
X136087537Y-92961831D01*
X136113148Y-92900000D01*
X136413547Y-92900000D01*
X136313262Y-93000285D01*
X136024893Y-93431859D01*
X135826261Y-93911399D01*
X135725000Y-94420475D01*
X135725000Y-94939525D01*
X135826261Y-95448601D01*
X136024893Y-95928141D01*
X136313262Y-96359715D01*
X136680285Y-96726738D01*
X137111859Y-97015107D01*
X137591399Y-97213739D01*
X138100475Y-97315000D01*
X138619525Y-97315000D01*
X139128601Y-97213739D01*
X139608141Y-97015107D01*
X140039715Y-96726738D01*
X140406738Y-96359715D01*
X140695107Y-95928141D01*
X140893739Y-95448601D01*
X140995000Y-94939525D01*
X140995000Y-94533740D01*
X141955000Y-94533740D01*
X141955000Y-94826260D01*
X142012068Y-95113158D01*
X142124010Y-95383411D01*
X142286525Y-95626632D01*
X142493368Y-95833475D01*
X142736589Y-95995990D01*
X143006842Y-96107932D01*
X143293740Y-96165000D01*
X143586260Y-96165000D01*
X143873158Y-96107932D01*
X144143411Y-95995990D01*
X144386632Y-95833475D01*
X144593475Y-95626632D01*
X144755990Y-95383411D01*
X144867932Y-95113158D01*
X144925000Y-94826260D01*
X144925000Y-94533740D01*
X144867932Y-94246842D01*
X144755990Y-93976589D01*
X144593475Y-93733368D01*
X144386632Y-93526525D01*
X144143411Y-93364010D01*
X143873158Y-93252068D01*
X143586260Y-93195000D01*
X143293740Y-93195000D01*
X143006842Y-93252068D01*
X142736589Y-93364010D01*
X142493368Y-93526525D01*
X142286525Y-93733368D01*
X142124010Y-93976589D01*
X142012068Y-94246842D01*
X141955000Y-94533740D01*
X140995000Y-94533740D01*
X140995000Y-94420475D01*
X140893739Y-93911399D01*
X140695107Y-93431859D01*
X140406738Y-93000285D01*
X140306453Y-92900000D01*
X150951478Y-92900000D01*
X150988800Y-92903676D01*
X151026122Y-92900000D01*
X151026133Y-92900000D01*
X151137786Y-92889003D01*
X151281047Y-92845546D01*
X151413076Y-92774974D01*
X151528801Y-92680001D01*
X151552604Y-92650997D01*
X152459823Y-91743779D01*
X152415000Y-91969117D01*
X152415000Y-92310883D01*
X152481675Y-92646081D01*
X152612463Y-92961831D01*
X152768261Y-93195000D01*
X152733740Y-93195000D01*
X152446842Y-93252068D01*
X152176589Y-93364010D01*
X151933368Y-93526525D01*
X151726525Y-93733368D01*
X151564010Y-93976589D01*
X151452068Y-94246842D01*
X151395000Y-94533740D01*
X151395000Y-94826260D01*
X151452068Y-95113158D01*
X151564010Y-95383411D01*
X151726525Y-95626632D01*
X151933368Y-95833475D01*
X152176589Y-95995990D01*
X152446842Y-96107932D01*
X152733740Y-96165000D01*
X153026260Y-96165000D01*
X153313158Y-96107932D01*
X153583411Y-95995990D01*
X153826632Y-95833475D01*
X154033475Y-95626632D01*
X154195990Y-95383411D01*
X154307932Y-95113158D01*
X154365000Y-94826260D01*
X154365000Y-94533740D01*
X154307932Y-94246842D01*
X154195990Y-93976589D01*
X154128110Y-93875000D01*
X154320883Y-93875000D01*
X154656081Y-93808325D01*
X154971831Y-93677537D01*
X155255998Y-93487663D01*
X155497663Y-93245998D01*
X155687537Y-92961831D01*
X155713148Y-92900000D01*
X156013547Y-92900000D01*
X155913262Y-93000285D01*
X155624893Y-93431859D01*
X155426261Y-93911399D01*
X155325000Y-94420475D01*
X155325000Y-94939525D01*
X155426261Y-95448601D01*
X155624893Y-95928141D01*
X155913262Y-96359715D01*
X156280285Y-96726738D01*
X156711859Y-97015107D01*
X157191399Y-97213739D01*
X157700475Y-97315000D01*
X158219525Y-97315000D01*
X158728601Y-97213739D01*
X159208141Y-97015107D01*
X159639715Y-96726738D01*
X160006738Y-96359715D01*
X160295107Y-95928141D01*
X160493739Y-95448601D01*
X160595000Y-94939525D01*
X160595000Y-94533740D01*
X161555000Y-94533740D01*
X161555000Y-94826260D01*
X161612068Y-95113158D01*
X161724010Y-95383411D01*
X161886525Y-95626632D01*
X162093368Y-95833475D01*
X162336589Y-95995990D01*
X162606842Y-96107932D01*
X162893740Y-96165000D01*
X163186260Y-96165000D01*
X163473158Y-96107932D01*
X163743411Y-95995990D01*
X163986632Y-95833475D01*
X164193475Y-95626632D01*
X164355990Y-95383411D01*
X164467932Y-95113158D01*
X164525000Y-94826260D01*
X164525000Y-94533740D01*
X164467932Y-94246842D01*
X164355990Y-93976589D01*
X164193475Y-93733368D01*
X163986632Y-93526525D01*
X163743411Y-93364010D01*
X163473158Y-93252068D01*
X163186260Y-93195000D01*
X162893740Y-93195000D01*
X162606842Y-93252068D01*
X162336589Y-93364010D01*
X162093368Y-93526525D01*
X161886525Y-93733368D01*
X161724010Y-93976589D01*
X161612068Y-94246842D01*
X161555000Y-94533740D01*
X160595000Y-94533740D01*
X160595000Y-94420475D01*
X160493739Y-93911399D01*
X160295107Y-93431859D01*
X160006738Y-93000285D01*
X159906453Y-92900000D01*
X168909278Y-92900000D01*
X168946600Y-92903676D01*
X168983922Y-92900000D01*
X168983933Y-92900000D01*
X169095586Y-92889003D01*
X169238847Y-92845546D01*
X169370876Y-92774974D01*
X169486601Y-92680001D01*
X169510404Y-92650997D01*
X172990000Y-89171402D01*
X172990000Y-90676852D01*
X172928169Y-90702463D01*
X172644002Y-90892337D01*
X172402337Y-91134002D01*
X172212463Y-91418169D01*
X172081675Y-91733919D01*
X172015000Y-92069117D01*
X172015000Y-92410883D01*
X172081675Y-92746081D01*
X172212463Y-93061831D01*
X172368261Y-93295000D01*
X172333740Y-93295000D01*
X172046842Y-93352068D01*
X171776589Y-93464010D01*
X171533368Y-93626525D01*
X171326525Y-93833368D01*
X171164010Y-94076589D01*
X171052068Y-94346842D01*
X170995000Y-94633740D01*
X170995000Y-94926260D01*
X171052068Y-95213158D01*
X171164010Y-95483411D01*
X171326525Y-95726632D01*
X171533368Y-95933475D01*
X171776589Y-96095990D01*
X172046842Y-96207932D01*
X172333740Y-96265000D01*
X172626260Y-96265000D01*
X172913158Y-96207932D01*
X173183411Y-96095990D01*
X173426632Y-95933475D01*
X173633475Y-95726632D01*
X173795990Y-95483411D01*
X173907932Y-95213158D01*
X173965000Y-94926260D01*
X173965000Y-94633740D01*
X173942471Y-94520475D01*
X174925000Y-94520475D01*
X174925000Y-95039525D01*
X175026261Y-95548601D01*
X175224893Y-96028141D01*
X175513262Y-96459715D01*
X175880285Y-96826738D01*
X176311859Y-97115107D01*
X176791399Y-97313739D01*
X177300475Y-97415000D01*
X177819525Y-97415000D01*
X178328601Y-97313739D01*
X178808141Y-97115107D01*
X179239715Y-96826738D01*
X179606738Y-96459715D01*
X179895107Y-96028141D01*
X180093739Y-95548601D01*
X180195000Y-95039525D01*
X180195000Y-94633740D01*
X181155000Y-94633740D01*
X181155000Y-94926260D01*
X181212068Y-95213158D01*
X181324010Y-95483411D01*
X181486525Y-95726632D01*
X181693368Y-95933475D01*
X181936589Y-96095990D01*
X182206842Y-96207932D01*
X182493740Y-96265000D01*
X182786260Y-96265000D01*
X183073158Y-96207932D01*
X183343411Y-96095990D01*
X183586632Y-95933475D01*
X183793475Y-95726632D01*
X183955990Y-95483411D01*
X184067932Y-95213158D01*
X184125000Y-94926260D01*
X184125000Y-94633740D01*
X184067932Y-94346842D01*
X183955990Y-94076589D01*
X183793475Y-93833368D01*
X183586632Y-93626525D01*
X183343411Y-93464010D01*
X183073158Y-93352068D01*
X182786260Y-93295000D01*
X182493740Y-93295000D01*
X182206842Y-93352068D01*
X181936589Y-93464010D01*
X181693368Y-93626525D01*
X181486525Y-93833368D01*
X181324010Y-94076589D01*
X181212068Y-94346842D01*
X181155000Y-94633740D01*
X180195000Y-94633740D01*
X180195000Y-94520475D01*
X180093739Y-94011399D01*
X179895107Y-93531859D01*
X179606738Y-93100285D01*
X179239715Y-92733262D01*
X178808141Y-92444893D01*
X178328601Y-92246261D01*
X177819525Y-92145000D01*
X177300475Y-92145000D01*
X176791399Y-92246261D01*
X176311859Y-92444893D01*
X175880285Y-92733262D01*
X175513262Y-93100285D01*
X175224893Y-93531859D01*
X175026261Y-94011399D01*
X174925000Y-94520475D01*
X173942471Y-94520475D01*
X173907932Y-94346842D01*
X173795990Y-94076589D01*
X173728110Y-93975000D01*
X173920883Y-93975000D01*
X174256081Y-93908325D01*
X174571831Y-93777537D01*
X174855998Y-93587663D01*
X175097663Y-93345998D01*
X175287537Y-93061831D01*
X175418325Y-92746081D01*
X175485000Y-92410883D01*
X175485000Y-92069117D01*
X175418325Y-91733919D01*
X175287537Y-91418169D01*
X175097663Y-91134002D01*
X174855998Y-90892337D01*
X174571831Y-90702463D01*
X174510000Y-90676852D01*
X174510000Y-89529117D01*
X178365000Y-89529117D01*
X178365000Y-89870883D01*
X178431675Y-90206081D01*
X178562463Y-90521831D01*
X178752337Y-90805998D01*
X178994002Y-91047663D01*
X179278169Y-91237537D01*
X179593919Y-91368325D01*
X179929117Y-91435000D01*
X180270883Y-91435000D01*
X180606081Y-91368325D01*
X180921831Y-91237537D01*
X181205998Y-91047663D01*
X181447663Y-90805998D01*
X181637537Y-90521831D01*
X181768325Y-90206081D01*
X181835000Y-89870883D01*
X181835000Y-89529117D01*
X181768325Y-89193919D01*
X181637537Y-88878169D01*
X181447663Y-88594002D01*
X181205998Y-88352337D01*
X180921831Y-88162463D01*
X180606081Y-88031675D01*
X180270883Y-87965000D01*
X179929117Y-87965000D01*
X179593919Y-88031675D01*
X179278169Y-88162463D01*
X178994002Y-88352337D01*
X178752337Y-88594002D01*
X178562463Y-88878169D01*
X178431675Y-89193919D01*
X178365000Y-89529117D01*
X174510000Y-89529117D01*
X174510000Y-79657000D01*
X175307928Y-79657000D01*
X175307928Y-81657000D01*
X175320188Y-81781482D01*
X175356498Y-81901180D01*
X175415463Y-82011494D01*
X175494815Y-82108185D01*
X175591506Y-82187537D01*
X175701820Y-82246502D01*
X175821518Y-82282812D01*
X175946000Y-82295072D01*
X179146000Y-82295072D01*
X179270482Y-82282812D01*
X179390180Y-82246502D01*
X179500494Y-82187537D01*
X179597185Y-82108185D01*
X179676537Y-82011494D01*
X179735502Y-81901180D01*
X179771812Y-81781482D01*
X179784072Y-81657000D01*
X179784072Y-79657000D01*
X179771812Y-79532518D01*
X179735502Y-79412820D01*
X179676537Y-79302506D01*
X179597185Y-79205815D01*
X179500494Y-79126463D01*
X179390180Y-79067498D01*
X179270482Y-79031188D01*
X179146000Y-79018928D01*
X175946000Y-79018928D01*
X175821518Y-79031188D01*
X175701820Y-79067498D01*
X175591506Y-79126463D01*
X175494815Y-79205815D01*
X175415463Y-79302506D01*
X175356498Y-79412820D01*
X175320188Y-79532518D01*
X175307928Y-79657000D01*
X174510000Y-79657000D01*
X174510000Y-68853725D01*
X174906725Y-68457000D01*
X175307928Y-68457000D01*
X175307928Y-70457000D01*
X175320188Y-70581482D01*
X175356498Y-70701180D01*
X175415463Y-70811494D01*
X175494815Y-70908185D01*
X175591506Y-70987537D01*
X175701820Y-71046502D01*
X175821518Y-71082812D01*
X175946000Y-71095072D01*
X179146000Y-71095072D01*
X179270482Y-71082812D01*
X179390180Y-71046502D01*
X179500494Y-70987537D01*
X179597185Y-70908185D01*
X179676537Y-70811494D01*
X179735502Y-70701180D01*
X179771812Y-70581482D01*
X179784072Y-70457000D01*
X179784072Y-68457000D01*
X179771812Y-68332518D01*
X179735502Y-68212820D01*
X179676537Y-68102506D01*
X179597185Y-68005815D01*
X179500494Y-67926463D01*
X179390180Y-67867498D01*
X179270482Y-67831188D01*
X179146000Y-67818928D01*
X175946000Y-67818928D01*
X175821518Y-67831188D01*
X175701820Y-67867498D01*
X175591506Y-67926463D01*
X175494815Y-68005815D01*
X175415463Y-68102506D01*
X175356498Y-68212820D01*
X175320188Y-68332518D01*
X175307928Y-68457000D01*
X174906725Y-68457000D01*
X177992873Y-65370853D01*
X178022838Y-65371834D01*
X178146251Y-65351458D01*
X179740995Y-64924148D01*
X179858062Y-64880087D01*
X179964284Y-64814035D01*
X180055578Y-64728528D01*
X180128436Y-64626854D01*
X180180060Y-64512920D01*
X180208463Y-64391103D01*
X180212556Y-64266086D01*
X180192180Y-64142673D01*
X179764870Y-62547929D01*
X179751309Y-62511899D01*
X184676464Y-62511899D01*
X184790732Y-62682914D01*
X184994162Y-62886344D01*
X185233371Y-63046178D01*
X185499165Y-63156273D01*
X185781330Y-63212399D01*
X186069024Y-63212399D01*
X186351189Y-63156273D01*
X186616983Y-63046178D01*
X186856192Y-62886344D01*
X187059622Y-62682914D01*
X187219456Y-62443705D01*
X187329551Y-62177911D01*
X187363812Y-62005671D01*
X187397047Y-62172756D01*
X187557988Y-62561302D01*
X187791637Y-62910983D01*
X188089017Y-63208363D01*
X188438698Y-63442012D01*
X188827244Y-63602953D01*
X189239721Y-63685000D01*
X189660279Y-63685000D01*
X190072756Y-63602953D01*
X190461302Y-63442012D01*
X190810983Y-63208363D01*
X190940000Y-63079346D01*
X190939969Y-101294187D01*
X190661302Y-101107988D01*
X190272756Y-100947047D01*
X189860279Y-100865000D01*
X189439721Y-100865000D01*
X189027244Y-100947047D01*
X188638698Y-101107988D01*
X188289017Y-101341637D01*
X187991637Y-101639017D01*
X187757988Y-101988698D01*
X187597047Y-102377244D01*
X187515000Y-102789721D01*
X187515000Y-103210279D01*
X187597047Y-103622756D01*
X187757988Y-104011302D01*
X187991637Y-104360983D01*
X188020654Y-104390000D01*
X126837396Y-104390000D01*
X126971637Y-104255759D01*
X127128680Y-104020727D01*
X127236853Y-103759574D01*
X127292000Y-103482335D01*
X127292000Y-103199665D01*
X127236853Y-102922426D01*
X127128680Y-102661273D01*
X126971637Y-102426241D01*
X126771759Y-102226363D01*
X126745072Y-102208531D01*
X126745072Y-102107041D01*
X126811494Y-102071537D01*
X126908185Y-101992185D01*
X126987537Y-101895494D01*
X127046502Y-101785180D01*
X127082812Y-101665482D01*
X127095072Y-101541000D01*
X127095072Y-100041000D01*
X127082812Y-99916518D01*
X127046502Y-99796820D01*
X126987537Y-99686506D01*
X126908185Y-99589815D01*
X126811494Y-99510463D01*
X126701180Y-99451498D01*
X126666573Y-99441000D01*
X126701180Y-99430502D01*
X126811494Y-99371537D01*
X126908185Y-99292185D01*
X126987537Y-99195494D01*
X127019412Y-99135861D01*
X131883200Y-99135861D01*
X131883200Y-99339739D01*
X131922974Y-99539698D01*
X132000995Y-99728056D01*
X132114263Y-99897574D01*
X132258426Y-100041737D01*
X132427944Y-100155005D01*
X132616302Y-100233026D01*
X132816261Y-100272800D01*
X133020139Y-100272800D01*
X133220098Y-100233026D01*
X133408456Y-100155005D01*
X133577974Y-100041737D01*
X133621911Y-99997800D01*
X135032800Y-99997800D01*
X135032800Y-100152539D01*
X135072574Y-100352498D01*
X135150595Y-100540856D01*
X135263863Y-100710374D01*
X135408026Y-100854537D01*
X135577544Y-100967805D01*
X135765902Y-101045826D01*
X135965861Y-101085600D01*
X136169739Y-101085600D01*
X136369698Y-101045826D01*
X136558056Y-100967805D01*
X136727574Y-100854537D01*
X136771511Y-100810600D01*
X181902878Y-100810600D01*
X181940200Y-100814276D01*
X181977522Y-100810600D01*
X181977533Y-100810600D01*
X182089186Y-100799603D01*
X182232447Y-100756146D01*
X182364476Y-100685574D01*
X182480201Y-100590601D01*
X182504004Y-100561597D01*
X186540603Y-96524999D01*
X186569601Y-96501201D01*
X186603648Y-96459715D01*
X186664574Y-96385477D01*
X186735146Y-96253447D01*
X186748463Y-96209546D01*
X186778603Y-96110186D01*
X186789600Y-95998533D01*
X186789600Y-95998523D01*
X186793276Y-95961200D01*
X186789600Y-95923877D01*
X186789600Y-79842201D01*
X187328004Y-79303798D01*
X187357001Y-79280001D01*
X187451974Y-79164276D01*
X187522546Y-79032247D01*
X187566003Y-78888986D01*
X187577000Y-78777333D01*
X187577000Y-78777325D01*
X187580676Y-78740000D01*
X187577000Y-78702675D01*
X187577000Y-74365322D01*
X187580676Y-74327999D01*
X187577000Y-74290676D01*
X187577000Y-74290667D01*
X187566003Y-74179014D01*
X187522546Y-74035753D01*
X187451974Y-73903724D01*
X187357001Y-73787999D01*
X187328003Y-73764201D01*
X186612177Y-73048375D01*
X186618168Y-73033912D01*
X186681000Y-72718033D01*
X186681000Y-72395967D01*
X186618168Y-72080088D01*
X186494918Y-71782537D01*
X186315987Y-71514748D01*
X186088252Y-71287013D01*
X185820463Y-71108082D01*
X185522912Y-70984832D01*
X185207033Y-70922000D01*
X184884967Y-70922000D01*
X184569088Y-70984832D01*
X184271537Y-71108082D01*
X184003748Y-71287013D01*
X183776013Y-71514748D01*
X183597082Y-71782537D01*
X183473832Y-72080088D01*
X183411000Y-72395967D01*
X183411000Y-72718033D01*
X183473832Y-73033912D01*
X183597082Y-73331463D01*
X183776013Y-73599252D01*
X184003748Y-73826987D01*
X184100935Y-73891925D01*
X184090192Y-73921587D01*
X185046000Y-74877395D01*
X185060143Y-74863253D01*
X185239748Y-75042858D01*
X185225605Y-75057000D01*
X185239748Y-75071143D01*
X185060143Y-75250748D01*
X185046000Y-75236605D01*
X185031858Y-75250748D01*
X184852253Y-75071143D01*
X184866395Y-75057000D01*
X183910587Y-74101192D01*
X183646186Y-74196956D01*
X183505296Y-74486571D01*
X183423616Y-74798108D01*
X183404282Y-75119595D01*
X183448039Y-75438675D01*
X183553205Y-75743088D01*
X183646186Y-75917044D01*
X183795223Y-75971024D01*
X183691506Y-76026463D01*
X183594815Y-76105815D01*
X183515463Y-76202506D01*
X183456498Y-76312820D01*
X183420188Y-76432518D01*
X183407928Y-76557000D01*
X183407928Y-78557000D01*
X183420188Y-78681482D01*
X183456498Y-78801180D01*
X183515463Y-78911494D01*
X183594815Y-79008185D01*
X183691506Y-79087537D01*
X183801820Y-79146502D01*
X183921518Y-79182812D01*
X184046000Y-79195072D01*
X184286000Y-79195072D01*
X184286001Y-95537797D01*
X181345999Y-98477800D01*
X133621911Y-98477800D01*
X133577974Y-98433863D01*
X133408456Y-98320595D01*
X133220098Y-98242574D01*
X133020139Y-98202800D01*
X132816261Y-98202800D01*
X132616302Y-98242574D01*
X132427944Y-98320595D01*
X132258426Y-98433863D01*
X132114263Y-98578026D01*
X132000995Y-98747544D01*
X131922974Y-98935902D01*
X131883200Y-99135861D01*
X127019412Y-99135861D01*
X127046502Y-99085180D01*
X127082812Y-98965482D01*
X127095072Y-98841000D01*
X127095072Y-97341000D01*
X127082812Y-97216518D01*
X127046502Y-97096820D01*
X126987537Y-96986506D01*
X126908185Y-96889815D01*
X126811494Y-96810463D01*
X126745072Y-96774959D01*
X126745072Y-96673469D01*
X126771759Y-96655637D01*
X126971637Y-96455759D01*
X127128680Y-96220727D01*
X127236853Y-95959574D01*
X127292000Y-95682335D01*
X127292000Y-95399665D01*
X127236853Y-95122426D01*
X127128680Y-94861273D01*
X126971637Y-94626241D01*
X126771759Y-94426363D01*
X126536727Y-94269320D01*
X126275574Y-94161147D01*
X125998335Y-94106000D01*
X125715665Y-94106000D01*
X125438426Y-94161147D01*
X125177273Y-94269320D01*
X124942241Y-94426363D01*
X124742363Y-94626241D01*
X124585320Y-94861273D01*
X124477147Y-95122426D01*
X124422000Y-95399665D01*
X124422000Y-95682335D01*
X124477147Y-95959574D01*
X124585320Y-96220727D01*
X124742363Y-96455759D01*
X124942241Y-96655637D01*
X124968928Y-96673469D01*
X124968928Y-96774959D01*
X124902506Y-96810463D01*
X124805815Y-96889815D01*
X124726463Y-96986506D01*
X124667498Y-97096820D01*
X124631188Y-97216518D01*
X124618928Y-97341000D01*
X124618928Y-98841000D01*
X124631188Y-98965482D01*
X124667498Y-99085180D01*
X124726463Y-99195494D01*
X124805815Y-99292185D01*
X124902506Y-99371537D01*
X125012820Y-99430502D01*
X125047427Y-99441000D01*
X125012820Y-99451498D01*
X124902506Y-99510463D01*
X124805815Y-99589815D01*
X124726463Y-99686506D01*
X124667498Y-99796820D01*
X124631188Y-99916518D01*
X124618928Y-100041000D01*
X124618928Y-101028127D01*
X124298804Y-100708003D01*
X124275001Y-100678999D01*
X124159276Y-100584026D01*
X124027247Y-100513454D01*
X123883986Y-100469997D01*
X123772333Y-100459000D01*
X123772322Y-100459000D01*
X123735000Y-100455324D01*
X123697678Y-100459000D01*
X120431402Y-100459000D01*
X119886000Y-99913599D01*
X119886000Y-99184000D01*
X120025928Y-99184000D01*
X120038188Y-99308482D01*
X120074498Y-99428180D01*
X120133463Y-99538494D01*
X120212815Y-99635185D01*
X120309506Y-99714537D01*
X120419820Y-99773502D01*
X120539518Y-99809812D01*
X120664000Y-99822072D01*
X121228250Y-99819000D01*
X121387000Y-99660250D01*
X121387000Y-98811000D01*
X121641000Y-98811000D01*
X121641000Y-99660250D01*
X121799750Y-99819000D01*
X122364000Y-99822072D01*
X122488482Y-99809812D01*
X122608180Y-99773502D01*
X122718494Y-99714537D01*
X122815185Y-99635185D01*
X122894537Y-99538494D01*
X122953502Y-99428180D01*
X122989812Y-99308482D01*
X123002072Y-99184000D01*
X122999000Y-98969750D01*
X122840250Y-98811000D01*
X121641000Y-98811000D01*
X121387000Y-98811000D01*
X120187750Y-98811000D01*
X120029000Y-98969750D01*
X120025928Y-99184000D01*
X119886000Y-99184000D01*
X119886000Y-98184000D01*
X120025928Y-98184000D01*
X120029000Y-98398250D01*
X120187750Y-98557000D01*
X121387000Y-98557000D01*
X121387000Y-97707750D01*
X121641000Y-97707750D01*
X121641000Y-98557000D01*
X122840250Y-98557000D01*
X122999000Y-98398250D01*
X123002072Y-98184000D01*
X122989812Y-98059518D01*
X122953502Y-97939820D01*
X122894537Y-97829506D01*
X122815185Y-97732815D01*
X122718494Y-97653463D01*
X122608180Y-97594498D01*
X122488482Y-97558188D01*
X122364000Y-97545928D01*
X121799750Y-97549000D01*
X121641000Y-97707750D01*
X121387000Y-97707750D01*
X121228250Y-97549000D01*
X120664000Y-97545928D01*
X120539518Y-97558188D01*
X120419820Y-97594498D01*
X120309506Y-97653463D01*
X120212815Y-97732815D01*
X120133463Y-97829506D01*
X120074498Y-97939820D01*
X120038188Y-98059518D01*
X120025928Y-98184000D01*
X119886000Y-98184000D01*
X119886000Y-97623322D01*
X119889676Y-97585999D01*
X119886000Y-97548676D01*
X119886000Y-97548667D01*
X119875003Y-97437014D01*
X119831546Y-97293753D01*
X119760974Y-97161724D01*
X119747811Y-97145685D01*
X119689799Y-97074996D01*
X119689795Y-97074992D01*
X119666001Y-97045999D01*
X119637009Y-97022206D01*
X119331777Y-96716975D01*
X119499032Y-96786254D01*
X119756662Y-96837500D01*
X120019338Y-96837500D01*
X120276968Y-96786254D01*
X120519649Y-96685732D01*
X120738057Y-96539797D01*
X120853657Y-96424197D01*
X121687408Y-96424197D01*
X121746686Y-96657812D01*
X121984875Y-96768559D01*
X122240093Y-96830711D01*
X122502533Y-96841876D01*
X122762107Y-96801629D01*
X123008842Y-96711514D01*
X123109314Y-96657812D01*
X123168592Y-96424197D01*
X122428000Y-95683605D01*
X121687408Y-96424197D01*
X120853657Y-96424197D01*
X120923797Y-96354057D01*
X121069732Y-96135649D01*
X121159707Y-95918430D01*
X121220486Y-96084842D01*
X121274188Y-96185314D01*
X121507803Y-96244592D01*
X122248395Y-95504000D01*
X122607605Y-95504000D01*
X123348197Y-96244592D01*
X123581812Y-96185314D01*
X123692559Y-95947125D01*
X123754711Y-95691907D01*
X123765876Y-95429467D01*
X123725629Y-95169893D01*
X123635514Y-94923158D01*
X123581812Y-94822686D01*
X123348197Y-94763408D01*
X122607605Y-95504000D01*
X122248395Y-95504000D01*
X121507803Y-94763408D01*
X121274188Y-94822686D01*
X121163441Y-95060875D01*
X121157658Y-95084622D01*
X121069732Y-94872351D01*
X120923797Y-94653943D01*
X120853657Y-94583803D01*
X121687408Y-94583803D01*
X122428000Y-95324395D01*
X123168592Y-94583803D01*
X123109314Y-94350188D01*
X122871125Y-94239441D01*
X122615907Y-94177289D01*
X122353467Y-94166124D01*
X122093893Y-94206371D01*
X121847158Y-94296486D01*
X121746686Y-94350188D01*
X121687408Y-94583803D01*
X120853657Y-94583803D01*
X120738057Y-94468203D01*
X120519649Y-94322268D01*
X120415000Y-94278921D01*
X120415000Y-79721007D01*
X120419039Y-79679999D01*
X120415000Y-79638991D01*
X120415000Y-79638981D01*
X120402918Y-79516311D01*
X120355172Y-79358913D01*
X120277636Y-79213854D01*
X120173291Y-79086709D01*
X120141427Y-79060559D01*
X111971174Y-70890307D01*
X112001300Y-70738850D01*
X112001300Y-70657491D01*
X124212887Y-70657491D01*
X124255204Y-70952167D01*
X124354198Y-71232927D01*
X124431071Y-71376746D01*
X124682831Y-71457563D01*
X125550395Y-70590000D01*
X125909605Y-70590000D01*
X126777169Y-71457563D01*
X127028929Y-71376746D01*
X127157457Y-71108221D01*
X127231129Y-70819781D01*
X127247113Y-70522509D01*
X127204796Y-70227833D01*
X127105802Y-69947073D01*
X127028929Y-69803254D01*
X126777169Y-69722437D01*
X125909605Y-70590000D01*
X125550395Y-70590000D01*
X124682831Y-69722437D01*
X124431071Y-69803254D01*
X124302543Y-70071779D01*
X124228871Y-70360219D01*
X124212887Y-70657491D01*
X112001300Y-70657491D01*
X112001300Y-70441150D01*
X111943222Y-70149170D01*
X111829297Y-69874131D01*
X111663904Y-69626602D01*
X111453398Y-69416096D01*
X111309580Y-69320000D01*
X111453398Y-69223904D01*
X111580133Y-69097169D01*
X124862437Y-69097169D01*
X124933968Y-69320000D01*
X124862437Y-69542831D01*
X125730000Y-70410395D01*
X126597563Y-69542831D01*
X126526032Y-69320000D01*
X126597563Y-69097169D01*
X125730000Y-68229605D01*
X124862437Y-69097169D01*
X111580133Y-69097169D01*
X111663904Y-69013398D01*
X111829297Y-68765869D01*
X111943222Y-68490830D01*
X112001300Y-68198850D01*
X112001300Y-68117491D01*
X124212887Y-68117491D01*
X124255204Y-68412167D01*
X124354198Y-68692927D01*
X124431071Y-68836746D01*
X124682831Y-68917563D01*
X125550395Y-68050000D01*
X125909605Y-68050000D01*
X126777169Y-68917563D01*
X127028929Y-68836746D01*
X127157457Y-68568221D01*
X127231129Y-68279781D01*
X127247113Y-67982509D01*
X127204796Y-67687833D01*
X127105802Y-67407073D01*
X127028929Y-67263254D01*
X126777169Y-67182437D01*
X125909605Y-68050000D01*
X125550395Y-68050000D01*
X124682831Y-67182437D01*
X124431071Y-67263254D01*
X124302543Y-67531779D01*
X124228871Y-67820219D01*
X124212887Y-68117491D01*
X112001300Y-68117491D01*
X112001300Y-67901150D01*
X111943222Y-67609170D01*
X111829297Y-67334131D01*
X111663904Y-67086602D01*
X111453398Y-66876096D01*
X111290191Y-66767045D01*
X111357563Y-66557169D01*
X110490000Y-65689605D01*
X109622437Y-66557169D01*
X109689809Y-66767045D01*
X109526602Y-66876096D01*
X109316096Y-67086602D01*
X109150703Y-67334131D01*
X109036778Y-67609170D01*
X108978700Y-67901150D01*
X108978700Y-68198850D01*
X109036778Y-68490830D01*
X109150703Y-68765869D01*
X109316096Y-69013398D01*
X109526602Y-69223904D01*
X109670420Y-69320000D01*
X109526602Y-69416096D01*
X109316096Y-69626602D01*
X109150703Y-69874131D01*
X109036778Y-70149170D01*
X108978700Y-70441150D01*
X108978700Y-70738850D01*
X109036778Y-71030830D01*
X109150703Y-71305869D01*
X109316096Y-71553398D01*
X109526602Y-71763904D01*
X109670420Y-71860000D01*
X109526602Y-71956096D01*
X109316096Y-72166602D01*
X109150703Y-72414131D01*
X109036778Y-72689170D01*
X108978700Y-72981150D01*
X108978700Y-73278850D01*
X109036778Y-73570830D01*
X109150703Y-73845869D01*
X109316096Y-74093398D01*
X109526602Y-74303904D01*
X109670420Y-74400000D01*
X109526602Y-74496096D01*
X109316096Y-74706602D01*
X109150703Y-74954131D01*
X109036778Y-75229170D01*
X108978700Y-75521150D01*
X108978700Y-75818850D01*
X109036778Y-76110830D01*
X109150703Y-76385869D01*
X109316096Y-76633398D01*
X109526602Y-76843904D01*
X109670420Y-76940000D01*
X109526602Y-77036096D01*
X109316096Y-77246602D01*
X109150703Y-77494131D01*
X109036778Y-77769170D01*
X108978700Y-78061150D01*
X108978700Y-78358850D01*
X109036778Y-78650830D01*
X109150703Y-78925869D01*
X109316096Y-79173398D01*
X109526602Y-79383904D01*
X109670420Y-79480000D01*
X109526602Y-79576096D01*
X109316096Y-79786602D01*
X109150703Y-80034131D01*
X109036778Y-80309170D01*
X108978700Y-80601150D01*
X108978700Y-80898850D01*
X109036778Y-81190830D01*
X109150703Y-81465869D01*
X109316096Y-81713398D01*
X109526602Y-81923904D01*
X109670420Y-82020000D01*
X109526602Y-82116096D01*
X109316096Y-82326602D01*
X109150703Y-82574131D01*
X109036778Y-82849170D01*
X108978700Y-83141150D01*
X108978700Y-83438850D01*
X109036778Y-83730830D01*
X109150703Y-84005869D01*
X109316096Y-84253398D01*
X109526602Y-84463904D01*
X109670420Y-84560000D01*
X109526602Y-84656096D01*
X109316096Y-84866602D01*
X109150703Y-85114131D01*
X109036778Y-85389170D01*
X108978700Y-85681150D01*
X108978700Y-85978850D01*
X109036778Y-86270830D01*
X109150703Y-86545869D01*
X109316096Y-86793398D01*
X109526602Y-87003904D01*
X109670420Y-87100000D01*
X109526602Y-87196096D01*
X109316096Y-87406602D01*
X109150703Y-87654131D01*
X109036778Y-87929170D01*
X108978700Y-88221150D01*
X108978700Y-88518850D01*
X109036778Y-88810830D01*
X109150703Y-89085869D01*
X109316096Y-89333398D01*
X109526602Y-89543904D01*
X109670420Y-89640000D01*
X109526602Y-89736096D01*
X109316096Y-89946602D01*
X109150703Y-90194131D01*
X109036778Y-90469170D01*
X108978700Y-90761150D01*
X108978700Y-91058850D01*
X109036778Y-91350830D01*
X109150703Y-91625869D01*
X109316096Y-91873398D01*
X109526602Y-92083904D01*
X109774131Y-92249297D01*
X110049170Y-92363222D01*
X110341150Y-92421300D01*
X110638850Y-92421300D01*
X110930830Y-92363222D01*
X111205869Y-92249297D01*
X111453398Y-92083904D01*
X111663904Y-91873398D01*
X111829297Y-91625869D01*
X111943222Y-91350830D01*
X112001300Y-91058850D01*
X112001300Y-90761150D01*
X111943222Y-90469170D01*
X111829297Y-90194131D01*
X111663904Y-89946602D01*
X111453398Y-89736096D01*
X111309580Y-89640000D01*
X111453398Y-89543904D01*
X111663904Y-89333398D01*
X111798400Y-89132111D01*
X111862226Y-89195937D01*
X112031744Y-89309205D01*
X112220102Y-89387226D01*
X112420061Y-89427000D01*
X112623939Y-89427000D01*
X112823898Y-89387226D01*
X113012256Y-89309205D01*
X113106200Y-89246434D01*
X113200144Y-89309205D01*
X113388502Y-89387226D01*
X113588461Y-89427000D01*
X113792339Y-89427000D01*
X113992298Y-89387226D01*
X114048001Y-89364153D01*
X114048000Y-94408029D01*
X113957943Y-94468203D01*
X113772203Y-94653943D01*
X113626268Y-94872351D01*
X113525746Y-95115032D01*
X113474500Y-95372662D01*
X113474500Y-95635338D01*
X113525746Y-95892968D01*
X113626268Y-96135649D01*
X113772203Y-96354057D01*
X113957943Y-96539797D01*
X114176351Y-96685732D01*
X114419032Y-96786254D01*
X114676662Y-96837500D01*
X114762699Y-96837500D01*
X115486974Y-97561776D01*
X115341000Y-97707750D01*
X115341000Y-98557000D01*
X115361000Y-98557000D01*
X115361000Y-98811000D01*
X115341000Y-98811000D01*
X115341000Y-99660250D01*
X115499750Y-99819000D01*
X116064000Y-99822072D01*
X116188482Y-99809812D01*
X116308180Y-99773502D01*
X116418494Y-99714537D01*
X116515185Y-99635185D01*
X116594537Y-99538494D01*
X116653502Y-99428180D01*
X116689812Y-99308482D01*
X116702072Y-99184000D01*
X116699000Y-98969750D01*
X116540252Y-98811002D01*
X116699000Y-98811002D01*
X116699000Y-98773802D01*
X116740400Y-98815202D01*
X116740401Y-99710397D01*
X116118799Y-100332000D01*
X112776322Y-100332000D01*
X112738999Y-100328324D01*
X112701676Y-100332000D01*
X112701667Y-100332000D01*
X112590014Y-100342997D01*
X112446753Y-100386454D01*
X112314724Y-100457026D01*
X112198999Y-100551999D01*
X112175201Y-100580997D01*
X111728072Y-101028126D01*
X111728072Y-100041000D01*
X111715812Y-99916518D01*
X111679502Y-99796820D01*
X111620537Y-99686506D01*
X111541185Y-99589815D01*
X111444494Y-99510463D01*
X111334180Y-99451498D01*
X111299573Y-99441000D01*
X111334180Y-99430502D01*
X111444494Y-99371537D01*
X111541185Y-99292185D01*
X111620537Y-99195494D01*
X111626680Y-99184000D01*
X113725928Y-99184000D01*
X113738188Y-99308482D01*
X113774498Y-99428180D01*
X113833463Y-99538494D01*
X113912815Y-99635185D01*
X114009506Y-99714537D01*
X114119820Y-99773502D01*
X114239518Y-99809812D01*
X114364000Y-99822072D01*
X114928250Y-99819000D01*
X115087000Y-99660250D01*
X115087000Y-98811000D01*
X113887750Y-98811000D01*
X113729000Y-98969750D01*
X113725928Y-99184000D01*
X111626680Y-99184000D01*
X111679502Y-99085180D01*
X111715812Y-98965482D01*
X111728072Y-98841000D01*
X111728072Y-98184000D01*
X113725928Y-98184000D01*
X113729000Y-98398250D01*
X113887750Y-98557000D01*
X115087000Y-98557000D01*
X115087000Y-97707750D01*
X114928250Y-97549000D01*
X114364000Y-97545928D01*
X114239518Y-97558188D01*
X114119820Y-97594498D01*
X114009506Y-97653463D01*
X113912815Y-97732815D01*
X113833463Y-97829506D01*
X113774498Y-97939820D01*
X113738188Y-98059518D01*
X113725928Y-98184000D01*
X111728072Y-98184000D01*
X111728072Y-97341000D01*
X111715812Y-97216518D01*
X111679502Y-97096820D01*
X111620537Y-96986506D01*
X111541185Y-96889815D01*
X111444494Y-96810463D01*
X111378072Y-96774959D01*
X111378072Y-96673469D01*
X111404759Y-96655637D01*
X111604637Y-96455759D01*
X111761680Y-96220727D01*
X111869853Y-95959574D01*
X111925000Y-95682335D01*
X111925000Y-95399665D01*
X111869853Y-95122426D01*
X111761680Y-94861273D01*
X111604637Y-94626241D01*
X111404759Y-94426363D01*
X111169727Y-94269320D01*
X110908574Y-94161147D01*
X110631335Y-94106000D01*
X110348665Y-94106000D01*
X110071426Y-94161147D01*
X109810273Y-94269320D01*
X109575241Y-94426363D01*
X109375363Y-94626241D01*
X109218320Y-94861273D01*
X109110147Y-95122426D01*
X109055000Y-95399665D01*
X109055000Y-95682335D01*
X109110147Y-95959574D01*
X109218320Y-96220727D01*
X109375363Y-96455759D01*
X109575241Y-96655637D01*
X109601928Y-96673469D01*
X109601928Y-96774959D01*
X109535506Y-96810463D01*
X109438815Y-96889815D01*
X109359463Y-96986506D01*
X109300498Y-97096820D01*
X109264188Y-97216518D01*
X109251928Y-97341000D01*
X109251928Y-98841000D01*
X109264188Y-98965482D01*
X109300498Y-99085180D01*
X109359463Y-99195494D01*
X109438815Y-99292185D01*
X109535506Y-99371537D01*
X109645820Y-99430502D01*
X109680427Y-99441000D01*
X109645820Y-99451498D01*
X109535506Y-99510463D01*
X109438815Y-99589815D01*
X109359463Y-99686506D01*
X109300498Y-99796820D01*
X109264188Y-99916518D01*
X109251928Y-100041000D01*
X109251928Y-101541000D01*
X109264188Y-101665482D01*
X109300498Y-101785180D01*
X109359463Y-101895494D01*
X109438815Y-101992185D01*
X109535506Y-102071537D01*
X109601928Y-102107041D01*
X109601928Y-102208531D01*
X109575241Y-102226363D01*
X109375363Y-102426241D01*
X109218320Y-102661273D01*
X109110147Y-102922426D01*
X109055000Y-103199665D01*
X109055000Y-103482335D01*
X109110147Y-103759574D01*
X109218320Y-104020727D01*
X109375363Y-104255759D01*
X109509604Y-104390000D01*
X108479346Y-104390000D01*
X108508363Y-104360983D01*
X108742012Y-104011302D01*
X108902953Y-103622756D01*
X108985000Y-103210279D01*
X108985000Y-102789721D01*
X108902953Y-102377244D01*
X108742012Y-101988698D01*
X108508363Y-101639017D01*
X108210983Y-101341637D01*
X107861302Y-101107988D01*
X107472756Y-100947047D01*
X107060279Y-100865000D01*
X106639721Y-100865000D01*
X106227244Y-100947047D01*
X105838698Y-101107988D01*
X105510000Y-101327617D01*
X105510000Y-65577491D01*
X108972887Y-65577491D01*
X109015204Y-65872167D01*
X109114198Y-66152927D01*
X109191071Y-66296746D01*
X109442831Y-66377563D01*
X110310395Y-65510000D01*
X110669605Y-65510000D01*
X111537169Y-66377563D01*
X111788929Y-66296746D01*
X111917457Y-66028221D01*
X111991129Y-65739781D01*
X112007113Y-65442509D01*
X111964796Y-65147833D01*
X111865802Y-64867073D01*
X111788929Y-64723254D01*
X111537169Y-64642437D01*
X110669605Y-65510000D01*
X110310395Y-65510000D01*
X109442831Y-64642437D01*
X109191071Y-64723254D01*
X109062543Y-64991779D01*
X108988871Y-65280219D01*
X108972887Y-65577491D01*
X105510000Y-65577491D01*
X105510000Y-63079346D01*
X105589017Y-63158363D01*
X105938698Y-63392012D01*
X106327244Y-63552953D01*
X106739721Y-63635000D01*
X107160279Y-63635000D01*
X107572756Y-63552953D01*
X107961302Y-63392012D01*
X108310983Y-63158363D01*
X108608363Y-62860983D01*
X108634978Y-62821150D01*
X108978700Y-62821150D01*
X108978700Y-63118850D01*
X109036778Y-63410830D01*
X109150703Y-63685869D01*
X109316096Y-63933398D01*
X109526602Y-64143904D01*
X109689809Y-64252955D01*
X109622437Y-64462831D01*
X110490000Y-65330395D01*
X111357563Y-64462831D01*
X111290191Y-64252955D01*
X111453398Y-64143904D01*
X111663904Y-63933398D01*
X111829297Y-63685869D01*
X111943222Y-63410830D01*
X112001300Y-63118850D01*
X112001300Y-62821150D01*
X124218700Y-62821150D01*
X124218700Y-63118850D01*
X124276778Y-63410830D01*
X124390703Y-63685869D01*
X124556096Y-63933398D01*
X124766602Y-64143904D01*
X124910420Y-64240000D01*
X124766602Y-64336096D01*
X124556096Y-64546602D01*
X124390703Y-64794131D01*
X124276778Y-65069170D01*
X124218700Y-65361150D01*
X124218700Y-65658850D01*
X124276778Y-65950830D01*
X124390703Y-66225869D01*
X124556096Y-66473398D01*
X124766602Y-66683904D01*
X124929809Y-66792955D01*
X124862437Y-67002831D01*
X125730000Y-67870395D01*
X126597563Y-67002831D01*
X126530191Y-66792955D01*
X126693398Y-66683904D01*
X126903904Y-66473398D01*
X127069297Y-66225869D01*
X127183222Y-65950830D01*
X127241300Y-65658850D01*
X127241300Y-65361150D01*
X127183222Y-65069170D01*
X127069297Y-64794131D01*
X126903904Y-64546602D01*
X126693398Y-64336096D01*
X126549580Y-64240000D01*
X126693398Y-64143904D01*
X126903904Y-63933398D01*
X127069297Y-63685869D01*
X127183222Y-63410830D01*
X127228715Y-63182116D01*
X128403090Y-63182116D01*
X128423466Y-63305529D01*
X128850776Y-64900273D01*
X128894837Y-65017340D01*
X128960889Y-65123562D01*
X129046396Y-65214856D01*
X129148070Y-65287714D01*
X129262004Y-65339338D01*
X129383821Y-65367741D01*
X129508838Y-65371834D01*
X129632251Y-65351458D01*
X129891572Y-65281973D01*
X133790001Y-69180403D01*
X133790000Y-70976852D01*
X133728169Y-71002463D01*
X133444002Y-71192337D01*
X133202337Y-71434002D01*
X133012463Y-71718169D01*
X132881675Y-72033919D01*
X132815000Y-72369117D01*
X132815000Y-72710883D01*
X132881675Y-73046081D01*
X133012463Y-73361831D01*
X133168261Y-73595000D01*
X133133740Y-73595000D01*
X132846842Y-73652068D01*
X132576589Y-73764010D01*
X132333368Y-73926525D01*
X132126525Y-74133368D01*
X131964010Y-74376589D01*
X131852068Y-74646842D01*
X131795000Y-74933740D01*
X131795000Y-75226260D01*
X131852068Y-75513158D01*
X131964010Y-75783411D01*
X132126525Y-76026632D01*
X132333368Y-76233475D01*
X132576589Y-76395990D01*
X132846842Y-76507932D01*
X133133740Y-76565000D01*
X133426260Y-76565000D01*
X133713158Y-76507932D01*
X133983411Y-76395990D01*
X134226632Y-76233475D01*
X134433475Y-76026632D01*
X134595990Y-75783411D01*
X134707932Y-75513158D01*
X134765000Y-75226260D01*
X134765000Y-74933740D01*
X134707932Y-74646842D01*
X134595990Y-74376589D01*
X134528110Y-74275000D01*
X134720883Y-74275000D01*
X135056081Y-74208325D01*
X135371831Y-74077537D01*
X135655998Y-73887663D01*
X135897663Y-73645998D01*
X136087537Y-73361831D01*
X136218325Y-73046081D01*
X136285000Y-72710883D01*
X136285000Y-72369117D01*
X136218325Y-72033919D01*
X136087537Y-71718169D01*
X135897663Y-71434002D01*
X135655998Y-71192337D01*
X135371831Y-71002463D01*
X135310000Y-70976852D01*
X135310000Y-68902922D01*
X135313676Y-68865599D01*
X135310000Y-68828276D01*
X135310000Y-68828267D01*
X135299003Y-68716614D01*
X135255546Y-68573353D01*
X135216544Y-68500386D01*
X135184974Y-68441323D01*
X135113799Y-68354597D01*
X135090001Y-68325599D01*
X135061003Y-68301801D01*
X131513772Y-64754571D01*
X131541578Y-64728528D01*
X131614436Y-64626854D01*
X131666060Y-64512920D01*
X131694463Y-64391103D01*
X131698556Y-64266086D01*
X131678180Y-64142673D01*
X131250870Y-62547929D01*
X131206809Y-62430862D01*
X131140757Y-62324640D01*
X131055250Y-62233346D01*
X130953576Y-62160488D01*
X130839642Y-62108864D01*
X130717825Y-62080461D01*
X130592808Y-62076368D01*
X130469395Y-62096744D01*
X128874651Y-62524054D01*
X128757584Y-62568115D01*
X128651362Y-62634167D01*
X128560068Y-62719674D01*
X128487210Y-62821348D01*
X128435586Y-62935282D01*
X128407183Y-63057099D01*
X128403090Y-63182116D01*
X127228715Y-63182116D01*
X127241300Y-63118850D01*
X127241300Y-62821150D01*
X127183222Y-62529170D01*
X127069297Y-62254131D01*
X126903904Y-62006602D01*
X126693398Y-61796096D01*
X126445869Y-61630703D01*
X126170830Y-61516778D01*
X125878850Y-61458700D01*
X125581150Y-61458700D01*
X125289170Y-61516778D01*
X125014131Y-61630703D01*
X124766602Y-61796096D01*
X124556096Y-62006602D01*
X124390703Y-62254131D01*
X124276778Y-62529170D01*
X124218700Y-62821150D01*
X112001300Y-62821150D01*
X111943222Y-62529170D01*
X111829297Y-62254131D01*
X111663904Y-62006602D01*
X111453398Y-61796096D01*
X111205869Y-61630703D01*
X110930830Y-61516778D01*
X110638850Y-61458700D01*
X110341150Y-61458700D01*
X110049170Y-61516778D01*
X109774131Y-61630703D01*
X109526602Y-61796096D01*
X109316096Y-62006602D01*
X109150703Y-62254131D01*
X109036778Y-62529170D01*
X108978700Y-62821150D01*
X108634978Y-62821150D01*
X108842012Y-62511302D01*
X109002953Y-62122756D01*
X109085000Y-61710279D01*
X109085000Y-61289721D01*
X109002953Y-60877244D01*
X108842012Y-60488698D01*
X108608363Y-60139017D01*
X108529346Y-60060000D01*
X187920654Y-60060000D01*
X187791637Y-60189017D01*
G37*
X187791637Y-60189017D02*
X187557988Y-60538698D01*
X187397047Y-60927244D01*
X187321580Y-61306643D01*
X187219456Y-61060093D01*
X187059622Y-60820884D01*
X186856192Y-60617454D01*
X186616983Y-60457620D01*
X186351189Y-60347525D01*
X186069024Y-60291399D01*
X185781330Y-60291399D01*
X185499165Y-60347525D01*
X185233371Y-60457620D01*
X184994162Y-60617454D01*
X184790732Y-60820884D01*
X184676464Y-60991899D01*
X177778890Y-60991899D01*
X177664622Y-60820884D01*
X177461192Y-60617454D01*
X177221983Y-60457620D01*
X176956189Y-60347525D01*
X176674024Y-60291399D01*
X176386330Y-60291399D01*
X176104165Y-60347525D01*
X175838371Y-60457620D01*
X175599162Y-60617454D01*
X175395732Y-60820884D01*
X175281464Y-60991899D01*
X167377779Y-60991899D01*
X167263511Y-60820884D01*
X167060081Y-60617454D01*
X166820872Y-60457620D01*
X166555078Y-60347525D01*
X166272913Y-60291399D01*
X165985219Y-60291399D01*
X165703054Y-60347525D01*
X165437260Y-60457620D01*
X165198051Y-60617454D01*
X164994621Y-60820884D01*
X164834787Y-61060093D01*
X164724692Y-61325887D01*
X164668566Y-61608052D01*
X164668566Y-61895746D01*
X164724692Y-62177911D01*
X164834787Y-62443705D01*
X164994621Y-62682914D01*
X165198051Y-62886344D01*
X165437260Y-63046178D01*
X165703054Y-63156273D01*
X165985219Y-63212399D01*
X166272913Y-63212399D01*
X166555078Y-63156273D01*
X166820872Y-63046178D01*
X167060081Y-62886344D01*
X167263511Y-62682914D01*
X167377779Y-62511899D01*
X168039014Y-62511899D01*
X167993651Y-62524054D01*
X167876584Y-62568115D01*
X167770362Y-62634167D01*
X167679068Y-62719674D01*
X167606210Y-62821348D01*
X167554586Y-62935282D01*
X167526183Y-63057099D01*
X167522090Y-63182116D01*
X167542466Y-63305529D01*
X167969776Y-64900273D01*
X168013837Y-65017340D01*
X168079889Y-65123562D01*
X168165396Y-65214856D01*
X168267070Y-65287714D01*
X168381004Y-65339338D01*
X168409824Y-65346058D01*
X168409823Y-66536175D01*
X168314522Y-66526789D01*
X168314511Y-66526789D01*
X168277189Y-66523113D01*
X168239867Y-66526789D01*
X162646202Y-66526789D01*
X160415464Y-64296052D01*
X160416445Y-64266086D01*
X160396069Y-64142673D01*
X159968759Y-62547929D01*
X159924698Y-62430862D01*
X159858646Y-62324640D01*
X159773139Y-62233346D01*
X159671465Y-62160488D01*
X159557531Y-62108864D01*
X159435714Y-62080461D01*
X159310697Y-62076368D01*
X159187284Y-62096744D01*
X158322152Y-62328555D01*
X158384551Y-62177911D01*
X158440677Y-61895746D01*
X158440677Y-61608052D01*
X158384551Y-61325887D01*
X158274456Y-61060093D01*
X158114622Y-60820884D01*
X157911192Y-60617454D01*
X157671983Y-60457620D01*
X157406189Y-60347525D01*
X157124024Y-60291399D01*
X156836330Y-60291399D01*
X156554165Y-60347525D01*
X156288371Y-60457620D01*
X156049162Y-60617454D01*
X155845732Y-60820884D01*
X155731464Y-60991899D01*
X147920872Y-60991899D01*
X147814622Y-60832884D01*
X147611192Y-60629454D01*
X147371983Y-60469620D01*
X147106189Y-60359525D01*
X146824024Y-60303399D01*
X146536330Y-60303399D01*
X146254165Y-60359525D01*
X145988371Y-60469620D01*
X145749162Y-60629454D01*
X145545732Y-60832884D01*
X145439482Y-60991899D01*
X138659890Y-60991899D01*
X138545622Y-60820884D01*
X138342192Y-60617454D01*
X138102983Y-60457620D01*
X137837189Y-60347525D01*
X137555024Y-60291399D01*
X137267330Y-60291399D01*
X136985165Y-60347525D01*
X136719371Y-60457620D01*
X136480162Y-60617454D01*
X136276732Y-60820884D01*
X136116898Y-61060093D01*
X136006803Y-61325887D01*
X135950677Y-61608052D01*
X135950677Y-61895746D01*
X136006803Y-62177911D01*
X136116898Y-62443705D01*
X136276732Y-62682914D01*
X136480162Y-62886344D01*
X136719371Y-63046178D01*
X136985165Y-63156273D01*
X137267330Y-63212399D01*
X137555024Y-63212399D01*
X137672255Y-63189080D01*
X137672090Y-63194116D01*
X137692466Y-63317529D01*
X138119776Y-64912273D01*
X138163837Y-65029340D01*
X138229889Y-65135562D01*
X138315396Y-65226856D01*
X138417070Y-65299714D01*
X138531004Y-65351338D01*
X138652821Y-65379741D01*
X138777838Y-65383834D01*
X138901251Y-65363458D01*
X139667155Y-65158235D01*
X143244322Y-68735402D01*
X143268121Y-68764401D01*
X143383846Y-68859374D01*
X143515875Y-68929946D01*
X143659136Y-68973403D01*
X143770789Y-68984400D01*
X143770798Y-68984400D01*
X143808121Y-68988076D01*
X143845444Y-68984400D01*
X151831199Y-68984400D01*
X153390001Y-70543203D01*
X153390001Y-70976851D01*
X153328169Y-71002463D01*
X153044002Y-71192337D01*
X152802337Y-71434002D01*
X152612463Y-71718169D01*
X152481675Y-72033919D01*
X152415000Y-72369117D01*
X152415000Y-72710883D01*
X152481675Y-73046081D01*
X152612463Y-73361831D01*
X152768261Y-73595000D01*
X152733740Y-73595000D01*
X152446842Y-73652068D01*
X152176589Y-73764010D01*
X151933368Y-73926525D01*
X151726525Y-74133368D01*
X151564010Y-74376589D01*
X151452068Y-74646842D01*
X151395000Y-74933740D01*
X151395000Y-75226260D01*
X151452068Y-75513158D01*
X151564010Y-75783411D01*
X151726525Y-76026632D01*
X151933368Y-76233475D01*
X152176589Y-76395990D01*
X152446842Y-76507932D01*
X152733740Y-76565000D01*
X153026260Y-76565000D01*
X153313158Y-76507932D01*
X153583411Y-76395990D01*
X153826632Y-76233475D01*
X154033475Y-76026632D01*
X154195990Y-75783411D01*
X154307932Y-75513158D01*
X154365000Y-75226260D01*
X154365000Y-74933740D01*
X154307932Y-74646842D01*
X154195990Y-74376589D01*
X154128110Y-74275000D01*
X154320883Y-74275000D01*
X154656081Y-74208325D01*
X154971831Y-74077537D01*
X155255998Y-73887663D01*
X155497663Y-73645998D01*
X155687537Y-73361831D01*
X155818325Y-73046081D01*
X155885000Y-72710883D01*
X155885000Y-72369117D01*
X155818325Y-72033919D01*
X155687537Y-71718169D01*
X155497663Y-71434002D01*
X155255998Y-71192337D01*
X154971831Y-71002463D01*
X154910000Y-70976852D01*
X154910000Y-70265722D01*
X154913676Y-70228400D01*
X154910000Y-70191077D01*
X154910000Y-70191067D01*
X154899003Y-70079414D01*
X154855546Y-69936153D01*
X154810038Y-69851014D01*
X154784974Y-69804123D01*
X154713799Y-69717397D01*
X154690001Y-69688399D01*
X154661003Y-69664601D01*
X154096225Y-69099823D01*
X154098136Y-69100403D01*
X154209789Y-69111400D01*
X154209799Y-69111400D01*
X154247121Y-69115076D01*
X154284444Y-69111400D01*
X159007077Y-69111400D01*
X158962463Y-69178169D01*
X158831675Y-69493919D01*
X158765000Y-69829117D01*
X158765000Y-70170883D01*
X158831675Y-70506081D01*
X158962463Y-70821831D01*
X159152337Y-71105998D01*
X159394002Y-71347663D01*
X159678169Y-71537537D01*
X159740000Y-71563148D01*
X159740000Y-73133547D01*
X159639715Y-73033262D01*
X159208141Y-72744893D01*
X158728601Y-72546261D01*
X158219525Y-72445000D01*
X157700475Y-72445000D01*
X157191399Y-72546261D01*
X156711859Y-72744893D01*
X156280285Y-73033262D01*
X155913262Y-73400285D01*
X155624893Y-73831859D01*
X155426261Y-74311399D01*
X155325000Y-74820475D01*
X155325000Y-75339525D01*
X155426261Y-75848601D01*
X155624893Y-76328141D01*
X155913262Y-76759715D01*
X156280285Y-77126738D01*
X156711859Y-77415107D01*
X157191399Y-77613739D01*
X157700475Y-77715000D01*
X158219525Y-77715000D01*
X158728601Y-77613739D01*
X159208141Y-77415107D01*
X159639715Y-77126738D01*
X159740000Y-77026453D01*
X159740001Y-88036851D01*
X159678169Y-88062463D01*
X159394002Y-88252337D01*
X159152337Y-88494002D01*
X158962463Y-88778169D01*
X158936852Y-88840000D01*
X156691402Y-88840000D01*
X156189603Y-88338202D01*
X156165801Y-88309199D01*
X156050076Y-88214226D01*
X155918047Y-88143654D01*
X155774786Y-88100197D01*
X155663133Y-88089200D01*
X155663122Y-88089200D01*
X155625800Y-88085524D01*
X155588478Y-88089200D01*
X152843722Y-88089200D01*
X152806399Y-88085524D01*
X152769076Y-88089200D01*
X152769067Y-88089200D01*
X152657414Y-88100197D01*
X152514153Y-88143654D01*
X152382124Y-88214226D01*
X152266399Y-88309199D01*
X152242601Y-88338197D01*
X150180199Y-90400600D01*
X142446331Y-90400600D01*
X142568325Y-90106081D01*
X142635000Y-89770883D01*
X142635000Y-89429117D01*
X142568325Y-89093919D01*
X142437537Y-88778169D01*
X142247663Y-88494002D01*
X142005998Y-88252337D01*
X141721831Y-88062463D01*
X141660000Y-88036852D01*
X141660000Y-74933740D01*
X141955000Y-74933740D01*
X141955000Y-75226260D01*
X142012068Y-75513158D01*
X142124010Y-75783411D01*
X142286525Y-76026632D01*
X142493368Y-76233475D01*
X142736589Y-76395990D01*
X143006842Y-76507932D01*
X143293740Y-76565000D01*
X143586260Y-76565000D01*
X143873158Y-76507932D01*
X144143411Y-76395990D01*
X144386632Y-76233475D01*
X144593475Y-76026632D01*
X144755990Y-75783411D01*
X144867932Y-75513158D01*
X144925000Y-75226260D01*
X144925000Y-74933740D01*
X144867932Y-74646842D01*
X144755990Y-74376589D01*
X144593475Y-74133368D01*
X144386632Y-73926525D01*
X144143411Y-73764010D01*
X143873158Y-73652068D01*
X143586260Y-73595000D01*
X143293740Y-73595000D01*
X143006842Y-73652068D01*
X142736589Y-73764010D01*
X142493368Y-73926525D01*
X142286525Y-74133368D01*
X142124010Y-74376589D01*
X142012068Y-74646842D01*
X141955000Y-74933740D01*
X141660000Y-74933740D01*
X141660000Y-71563148D01*
X141721831Y-71537537D01*
X142005998Y-71347663D01*
X142247663Y-71105998D01*
X142437537Y-70821831D01*
X142568325Y-70506081D01*
X142635000Y-70170883D01*
X142635000Y-69829117D01*
X142568325Y-69493919D01*
X142437537Y-69178169D01*
X142247663Y-68894002D01*
X142005998Y-68652337D01*
X141721831Y-68462463D01*
X141406081Y-68331675D01*
X141070883Y-68265000D01*
X140729117Y-68265000D01*
X140393919Y-68331675D01*
X140078169Y-68462463D01*
X139794002Y-68652337D01*
X139552337Y-68894002D01*
X139362463Y-69178169D01*
X139231675Y-69493919D01*
X139165000Y-69829117D01*
X139165000Y-70170883D01*
X139231675Y-70506081D01*
X139362463Y-70821831D01*
X139552337Y-71105998D01*
X139794002Y-71347663D01*
X140078169Y-71537537D01*
X140140000Y-71563148D01*
X140140000Y-73133547D01*
X140039715Y-73033262D01*
X139608141Y-72744893D01*
X139128601Y-72546261D01*
X138619525Y-72445000D01*
X138100475Y-72445000D01*
X137591399Y-72546261D01*
X137111859Y-72744893D01*
X136680285Y-73033262D01*
X136313262Y-73400285D01*
X136024893Y-73831859D01*
X135826261Y-74311399D01*
X135725000Y-74820475D01*
X135725000Y-75339525D01*
X135826261Y-75848601D01*
X136024893Y-76328141D01*
X136313262Y-76759715D01*
X136680285Y-77126738D01*
X137111859Y-77415107D01*
X137591399Y-77613739D01*
X138100475Y-77715000D01*
X138619525Y-77715000D01*
X139128601Y-77613739D01*
X139608141Y-77415107D01*
X140039715Y-77126738D01*
X140140000Y-77026453D01*
X140140001Y-87858799D01*
X132520204Y-80239003D01*
X132496401Y-80209999D01*
X132380676Y-80115026D01*
X132248647Y-80044454D01*
X132105386Y-80000997D01*
X131993733Y-79990000D01*
X131993722Y-79990000D01*
X131956400Y-79986324D01*
X131919078Y-79990000D01*
X127039810Y-79990000D01*
X126903904Y-79786602D01*
X126693398Y-79576096D01*
X126549580Y-79480000D01*
X126693398Y-79383904D01*
X126903904Y-79173398D01*
X127069297Y-78925869D01*
X127183222Y-78650830D01*
X127241300Y-78358850D01*
X127241300Y-78061150D01*
X127183222Y-77769170D01*
X127069297Y-77494131D01*
X126903904Y-77246602D01*
X126693398Y-77036096D01*
X126549580Y-76940000D01*
X126693398Y-76843904D01*
X126903904Y-76633398D01*
X127069297Y-76385869D01*
X127183222Y-76110830D01*
X127241300Y-75818850D01*
X127241300Y-75521150D01*
X127183222Y-75229170D01*
X127069297Y-74954131D01*
X126903904Y-74706602D01*
X126693398Y-74496096D01*
X126549580Y-74400000D01*
X126693398Y-74303904D01*
X126903904Y-74093398D01*
X127069297Y-73845869D01*
X127183222Y-73570830D01*
X127241300Y-73278850D01*
X127241300Y-72981150D01*
X127183222Y-72689170D01*
X127069297Y-72414131D01*
X126903904Y-72166602D01*
X126693398Y-71956096D01*
X126530191Y-71847045D01*
X126597563Y-71637169D01*
X125730000Y-70769605D01*
X124862437Y-71637169D01*
X124929809Y-71847045D01*
X124766602Y-71956096D01*
X124556096Y-72166602D01*
X124390703Y-72414131D01*
X124276778Y-72689170D01*
X124218700Y-72981150D01*
X124218700Y-73278850D01*
X124276778Y-73570830D01*
X124390703Y-73845869D01*
X124556096Y-74093398D01*
X124766602Y-74303904D01*
X124910420Y-74400000D01*
X124766602Y-74496096D01*
X124556096Y-74706602D01*
X124390703Y-74954131D01*
X124276778Y-75229170D01*
X124218700Y-75521150D01*
X124218700Y-75818850D01*
X124276778Y-76110830D01*
X124390703Y-76385869D01*
X124556096Y-76633398D01*
X124766602Y-76843904D01*
X124910420Y-76940000D01*
X124766602Y-77036096D01*
X124556096Y-77246602D01*
X124390703Y-77494131D01*
X124276778Y-77769170D01*
X124218700Y-78061150D01*
X124218700Y-78358850D01*
X124276778Y-78650830D01*
X124390703Y-78925869D01*
X124556096Y-79173398D01*
X124766602Y-79383904D01*
X124910420Y-79480000D01*
X124766602Y-79576096D01*
X124556096Y-79786602D01*
X124390703Y-80034131D01*
X124276778Y-80309170D01*
X124218700Y-80601150D01*
X124218700Y-80898850D01*
X124276778Y-81190830D01*
X124390703Y-81465869D01*
X124556096Y-81713398D01*
X124766602Y-81923904D01*
X124910420Y-82020000D01*
X124766602Y-82116096D01*
X124556096Y-82326602D01*
X124390703Y-82574131D01*
X124276778Y-82849170D01*
X124218700Y-83141150D01*
X124218700Y-83438850D01*
X124276778Y-83730830D01*
X124390703Y-84005869D01*
X124556096Y-84253398D01*
X124766602Y-84463904D01*
X124910420Y-84560000D01*
X124766602Y-84656096D01*
X124556096Y-84866602D01*
X124390703Y-85114131D01*
X124276778Y-85389170D01*
X124218700Y-85681150D01*
X124218700Y-85978850D01*
X124276778Y-86270830D01*
X124390703Y-86545869D01*
X124556096Y-86793398D01*
X124766602Y-87003904D01*
X124910420Y-87100000D01*
X124766602Y-87196096D01*
X124556096Y-87406602D01*
X124390703Y-87654131D01*
X124276778Y-87929170D01*
X124218700Y-88221150D01*
X124218700Y-88518850D01*
X124276778Y-88810830D01*
X124390703Y-89085869D01*
X124556096Y-89333398D01*
X124766602Y-89543904D01*
X124910420Y-89640000D01*
X124766602Y-89736096D01*
X124556096Y-89946602D01*
X124390703Y-90194131D01*
X124276778Y-90469170D01*
X124218700Y-90761150D01*
X124218700Y-91058850D01*
X124276778Y-91350830D01*
X124390703Y-91625869D01*
X124556096Y-91873398D01*
X124766602Y-92083904D01*
X125014131Y-92249297D01*
X125289170Y-92363222D01*
X125581150Y-92421300D01*
X125878850Y-92421300D01*
X126170830Y-92363222D01*
X126445869Y-92249297D01*
X126693398Y-92083904D01*
X126903904Y-91873398D01*
X127069297Y-91625869D01*
X127183222Y-91350830D01*
X127241300Y-91058850D01*
X127241300Y-90761150D01*
X127183222Y-90469170D01*
X127069297Y-90194131D01*
X126903904Y-89946602D01*
X126693398Y-89736096D01*
X126549580Y-89640000D01*
X126693398Y-89543904D01*
X126903904Y-89333398D01*
X127069297Y-89085869D01*
X127183222Y-88810830D01*
X127241300Y-88518850D01*
X127241300Y-88221150D01*
X127183222Y-87929170D01*
X127069297Y-87654131D01*
X126903904Y-87406602D01*
X126693398Y-87196096D01*
X126549580Y-87100000D01*
X126693398Y-87003904D01*
X126903904Y-86793398D01*
X127069297Y-86545869D01*
X127183222Y-86270830D01*
X127241300Y-85978850D01*
X127241300Y-85681150D01*
X127183222Y-85389170D01*
X127069297Y-85114131D01*
X126903904Y-84866602D01*
X126693398Y-84656096D01*
X126549580Y-84560000D01*
X126693398Y-84463904D01*
X126903904Y-84253398D01*
X127039810Y-84050000D01*
X130803399Y-84050000D01*
X138133398Y-91380000D01*
X136113148Y-91380000D01*
X136087537Y-91318169D01*
X135897663Y-91034002D01*
X135655998Y-90792337D01*
X135371831Y-90602463D01*
X135056081Y-90471675D01*
X134720883Y-90405000D01*
X134379117Y-90405000D01*
X134043919Y-90471675D01*
X133728169Y-90602463D01*
X133444002Y-90792337D01*
X133202337Y-91034002D01*
X133012463Y-91318169D01*
X132881675Y-91633919D01*
X132815000Y-91969117D01*
X132815000Y-92310883D01*
X132881675Y-92646081D01*
X133012463Y-92961831D01*
X133168261Y-93195000D01*
X133133740Y-93195000D01*
X132846842Y-93252068D01*
X132576589Y-93364010D01*
X132333368Y-93526525D01*
X132126525Y-93733368D01*
X131964010Y-93976589D01*
X131852068Y-94246842D01*
X131795000Y-94533740D01*
X131795000Y-94826260D01*
X131852068Y-95113158D01*
X131964010Y-95383411D01*
X132126525Y-95626632D01*
X132333368Y-95833475D01*
X132576589Y-95995990D01*
X132846842Y-96107932D01*
X133133740Y-96165000D01*
X133426260Y-96165000D01*
X133713158Y-96107932D01*
X133983411Y-95995990D01*
X134226632Y-95833475D01*
X134433475Y-95626632D01*
X134595990Y-95383411D01*
X134707932Y-95113158D01*
X134765000Y-94826260D01*
X134765000Y-94533740D01*
X134707932Y-94246842D01*
X134595990Y-93976589D01*
X134528110Y-93875000D01*
X134720883Y-93875000D01*
X135056081Y-93808325D01*
X135371831Y-93677537D01*
X135655998Y-93487663D01*
X135897663Y-93245998D01*
X136087537Y-92961831D01*
X136113148Y-92900000D01*
X136413547Y-92900000D01*
X136313262Y-93000285D01*
X136024893Y-93431859D01*
X135826261Y-93911399D01*
X135725000Y-94420475D01*
X135725000Y-94939525D01*
X135826261Y-95448601D01*
X136024893Y-95928141D01*
X136313262Y-96359715D01*
X136680285Y-96726738D01*
X137111859Y-97015107D01*
X137591399Y-97213739D01*
X138100475Y-97315000D01*
X138619525Y-97315000D01*
X139128601Y-97213739D01*
X139608141Y-97015107D01*
X140039715Y-96726738D01*
X140406738Y-96359715D01*
X140695107Y-95928141D01*
X140893739Y-95448601D01*
X140995000Y-94939525D01*
X140995000Y-94533740D01*
X141955000Y-94533740D01*
X141955000Y-94826260D01*
X142012068Y-95113158D01*
X142124010Y-95383411D01*
X142286525Y-95626632D01*
X142493368Y-95833475D01*
X142736589Y-95995990D01*
X143006842Y-96107932D01*
X143293740Y-96165000D01*
X143586260Y-96165000D01*
X143873158Y-96107932D01*
X144143411Y-95995990D01*
X144386632Y-95833475D01*
X144593475Y-95626632D01*
X144755990Y-95383411D01*
X144867932Y-95113158D01*
X144925000Y-94826260D01*
X144925000Y-94533740D01*
X144867932Y-94246842D01*
X144755990Y-93976589D01*
X144593475Y-93733368D01*
X144386632Y-93526525D01*
X144143411Y-93364010D01*
X143873158Y-93252068D01*
X143586260Y-93195000D01*
X143293740Y-93195000D01*
X143006842Y-93252068D01*
X142736589Y-93364010D01*
X142493368Y-93526525D01*
X142286525Y-93733368D01*
X142124010Y-93976589D01*
X142012068Y-94246842D01*
X141955000Y-94533740D01*
X140995000Y-94533740D01*
X140995000Y-94420475D01*
X140893739Y-93911399D01*
X140695107Y-93431859D01*
X140406738Y-93000285D01*
X140306453Y-92900000D01*
X150951478Y-92900000D01*
X150988800Y-92903676D01*
X151026122Y-92900000D01*
X151026133Y-92900000D01*
X151137786Y-92889003D01*
X151281047Y-92845546D01*
X151413076Y-92774974D01*
X151528801Y-92680001D01*
X151552604Y-92650997D01*
X152459823Y-91743779D01*
X152415000Y-91969117D01*
X152415000Y-92310883D01*
X152481675Y-92646081D01*
X152612463Y-92961831D01*
X152768261Y-93195000D01*
X152733740Y-93195000D01*
X152446842Y-93252068D01*
X152176589Y-93364010D01*
X151933368Y-93526525D01*
X151726525Y-93733368D01*
X151564010Y-93976589D01*
X151452068Y-94246842D01*
X151395000Y-94533740D01*
X151395000Y-94826260D01*
X151452068Y-95113158D01*
X151564010Y-95383411D01*
X151726525Y-95626632D01*
X151933368Y-95833475D01*
X152176589Y-95995990D01*
X152446842Y-96107932D01*
X152733740Y-96165000D01*
X153026260Y-96165000D01*
X153313158Y-96107932D01*
X153583411Y-95995990D01*
X153826632Y-95833475D01*
X154033475Y-95626632D01*
X154195990Y-95383411D01*
X154307932Y-95113158D01*
X154365000Y-94826260D01*
X154365000Y-94533740D01*
X154307932Y-94246842D01*
X154195990Y-93976589D01*
X154128110Y-93875000D01*
X154320883Y-93875000D01*
X154656081Y-93808325D01*
X154971831Y-93677537D01*
X155255998Y-93487663D01*
X155497663Y-93245998D01*
X155687537Y-92961831D01*
X155713148Y-92900000D01*
X156013547Y-92900000D01*
X155913262Y-93000285D01*
X155624893Y-93431859D01*
X155426261Y-93911399D01*
X155325000Y-94420475D01*
X155325000Y-94939525D01*
X155426261Y-95448601D01*
X155624893Y-95928141D01*
X155913262Y-96359715D01*
X156280285Y-96726738D01*
X156711859Y-97015107D01*
X157191399Y-97213739D01*
X157700475Y-97315000D01*
X158219525Y-97315000D01*
X158728601Y-97213739D01*
X159208141Y-97015107D01*
X159639715Y-96726738D01*
X160006738Y-96359715D01*
X160295107Y-95928141D01*
X160493739Y-95448601D01*
X160595000Y-94939525D01*
X160595000Y-94533740D01*
X161555000Y-94533740D01*
X161555000Y-94826260D01*
X161612068Y-95113158D01*
X161724010Y-95383411D01*
X161886525Y-95626632D01*
X162093368Y-95833475D01*
X162336589Y-95995990D01*
X162606842Y-96107932D01*
X162893740Y-96165000D01*
X163186260Y-96165000D01*
X163473158Y-96107932D01*
X163743411Y-95995990D01*
X163986632Y-95833475D01*
X164193475Y-95626632D01*
X164355990Y-95383411D01*
X164467932Y-95113158D01*
X164525000Y-94826260D01*
X164525000Y-94533740D01*
X164467932Y-94246842D01*
X164355990Y-93976589D01*
X164193475Y-93733368D01*
X163986632Y-93526525D01*
X163743411Y-93364010D01*
X163473158Y-93252068D01*
X163186260Y-93195000D01*
X162893740Y-93195000D01*
X162606842Y-93252068D01*
X162336589Y-93364010D01*
X162093368Y-93526525D01*
X161886525Y-93733368D01*
X161724010Y-93976589D01*
X161612068Y-94246842D01*
X161555000Y-94533740D01*
X160595000Y-94533740D01*
X160595000Y-94420475D01*
X160493739Y-93911399D01*
X160295107Y-93431859D01*
X160006738Y-93000285D01*
X159906453Y-92900000D01*
X168909278Y-92900000D01*
X168946600Y-92903676D01*
X168983922Y-92900000D01*
X168983933Y-92900000D01*
X169095586Y-92889003D01*
X169238847Y-92845546D01*
X169370876Y-92774974D01*
X169486601Y-92680001D01*
X169510404Y-92650997D01*
X172990000Y-89171402D01*
X172990000Y-90676852D01*
X172928169Y-90702463D01*
X172644002Y-90892337D01*
X172402337Y-91134002D01*
X172212463Y-91418169D01*
X172081675Y-91733919D01*
X172015000Y-92069117D01*
X172015000Y-92410883D01*
X172081675Y-92746081D01*
X172212463Y-93061831D01*
X172368261Y-93295000D01*
X172333740Y-93295000D01*
X172046842Y-93352068D01*
X171776589Y-93464010D01*
X171533368Y-93626525D01*
X171326525Y-93833368D01*
X171164010Y-94076589D01*
X171052068Y-94346842D01*
X170995000Y-94633740D01*
X170995000Y-94926260D01*
X171052068Y-95213158D01*
X171164010Y-95483411D01*
X171326525Y-95726632D01*
X171533368Y-95933475D01*
X171776589Y-96095990D01*
X172046842Y-96207932D01*
X172333740Y-96265000D01*
X172626260Y-96265000D01*
X172913158Y-96207932D01*
X173183411Y-96095990D01*
X173426632Y-95933475D01*
X173633475Y-95726632D01*
X173795990Y-95483411D01*
X173907932Y-95213158D01*
X173965000Y-94926260D01*
X173965000Y-94633740D01*
X173942471Y-94520475D01*
X174925000Y-94520475D01*
X174925000Y-95039525D01*
X175026261Y-95548601D01*
X175224893Y-96028141D01*
X175513262Y-96459715D01*
X175880285Y-96826738D01*
X176311859Y-97115107D01*
X176791399Y-97313739D01*
X177300475Y-97415000D01*
X177819525Y-97415000D01*
X178328601Y-97313739D01*
X178808141Y-97115107D01*
X179239715Y-96826738D01*
X179606738Y-96459715D01*
X179895107Y-96028141D01*
X180093739Y-95548601D01*
X180195000Y-95039525D01*
X180195000Y-94633740D01*
X181155000Y-94633740D01*
X181155000Y-94926260D01*
X181212068Y-95213158D01*
X181324010Y-95483411D01*
X181486525Y-95726632D01*
X181693368Y-95933475D01*
X181936589Y-96095990D01*
X182206842Y-96207932D01*
X182493740Y-96265000D01*
X182786260Y-96265000D01*
X183073158Y-96207932D01*
X183343411Y-96095990D01*
X183586632Y-95933475D01*
X183793475Y-95726632D01*
X183955990Y-95483411D01*
X184067932Y-95213158D01*
X184125000Y-94926260D01*
X184125000Y-94633740D01*
X184067932Y-94346842D01*
X183955990Y-94076589D01*
X183793475Y-93833368D01*
X183586632Y-93626525D01*
X183343411Y-93464010D01*
X183073158Y-93352068D01*
X182786260Y-93295000D01*
X182493740Y-93295000D01*
X182206842Y-93352068D01*
X181936589Y-93464010D01*
X181693368Y-93626525D01*
X181486525Y-93833368D01*
X181324010Y-94076589D01*
X181212068Y-94346842D01*
X181155000Y-94633740D01*
X180195000Y-94633740D01*
X180195000Y-94520475D01*
X180093739Y-94011399D01*
X179895107Y-93531859D01*
X179606738Y-93100285D01*
X179239715Y-92733262D01*
X178808141Y-92444893D01*
X178328601Y-92246261D01*
X177819525Y-92145000D01*
X177300475Y-92145000D01*
X176791399Y-92246261D01*
X176311859Y-92444893D01*
X175880285Y-92733262D01*
X175513262Y-93100285D01*
X175224893Y-93531859D01*
X175026261Y-94011399D01*
X174925000Y-94520475D01*
X173942471Y-94520475D01*
X173907932Y-94346842D01*
X173795990Y-94076589D01*
X173728110Y-93975000D01*
X173920883Y-93975000D01*
X174256081Y-93908325D01*
X174571831Y-93777537D01*
X174855998Y-93587663D01*
X175097663Y-93345998D01*
X175287537Y-93061831D01*
X175418325Y-92746081D01*
X175485000Y-92410883D01*
X175485000Y-92069117D01*
X175418325Y-91733919D01*
X175287537Y-91418169D01*
X175097663Y-91134002D01*
X174855998Y-90892337D01*
X174571831Y-90702463D01*
X174510000Y-90676852D01*
X174510000Y-89529117D01*
X178365000Y-89529117D01*
X178365000Y-89870883D01*
X178431675Y-90206081D01*
X178562463Y-90521831D01*
X178752337Y-90805998D01*
X178994002Y-91047663D01*
X179278169Y-91237537D01*
X179593919Y-91368325D01*
X179929117Y-91435000D01*
X180270883Y-91435000D01*
X180606081Y-91368325D01*
X180921831Y-91237537D01*
X181205998Y-91047663D01*
X181447663Y-90805998D01*
X181637537Y-90521831D01*
X181768325Y-90206081D01*
X181835000Y-89870883D01*
X181835000Y-89529117D01*
X181768325Y-89193919D01*
X181637537Y-88878169D01*
X181447663Y-88594002D01*
X181205998Y-88352337D01*
X180921831Y-88162463D01*
X180606081Y-88031675D01*
X180270883Y-87965000D01*
X179929117Y-87965000D01*
X179593919Y-88031675D01*
X179278169Y-88162463D01*
X178994002Y-88352337D01*
X178752337Y-88594002D01*
X178562463Y-88878169D01*
X178431675Y-89193919D01*
X178365000Y-89529117D01*
X174510000Y-89529117D01*
X174510000Y-79657000D01*
X175307928Y-79657000D01*
X175307928Y-81657000D01*
X175320188Y-81781482D01*
X175356498Y-81901180D01*
X175415463Y-82011494D01*
X175494815Y-82108185D01*
X175591506Y-82187537D01*
X175701820Y-82246502D01*
X175821518Y-82282812D01*
X175946000Y-82295072D01*
X179146000Y-82295072D01*
X179270482Y-82282812D01*
X179390180Y-82246502D01*
X179500494Y-82187537D01*
X179597185Y-82108185D01*
X179676537Y-82011494D01*
X179735502Y-81901180D01*
X179771812Y-81781482D01*
X179784072Y-81657000D01*
X179784072Y-79657000D01*
X179771812Y-79532518D01*
X179735502Y-79412820D01*
X179676537Y-79302506D01*
X179597185Y-79205815D01*
X179500494Y-79126463D01*
X179390180Y-79067498D01*
X179270482Y-79031188D01*
X179146000Y-79018928D01*
X175946000Y-79018928D01*
X175821518Y-79031188D01*
X175701820Y-79067498D01*
X175591506Y-79126463D01*
X175494815Y-79205815D01*
X175415463Y-79302506D01*
X175356498Y-79412820D01*
X175320188Y-79532518D01*
X175307928Y-79657000D01*
X174510000Y-79657000D01*
X174510000Y-68853725D01*
X174906725Y-68457000D01*
X175307928Y-68457000D01*
X175307928Y-70457000D01*
X175320188Y-70581482D01*
X175356498Y-70701180D01*
X175415463Y-70811494D01*
X175494815Y-70908185D01*
X175591506Y-70987537D01*
X175701820Y-71046502D01*
X175821518Y-71082812D01*
X175946000Y-71095072D01*
X179146000Y-71095072D01*
X179270482Y-71082812D01*
X179390180Y-71046502D01*
X179500494Y-70987537D01*
X179597185Y-70908185D01*
X179676537Y-70811494D01*
X179735502Y-70701180D01*
X179771812Y-70581482D01*
X179784072Y-70457000D01*
X179784072Y-68457000D01*
X179771812Y-68332518D01*
X179735502Y-68212820D01*
X179676537Y-68102506D01*
X179597185Y-68005815D01*
X179500494Y-67926463D01*
X179390180Y-67867498D01*
X179270482Y-67831188D01*
X179146000Y-67818928D01*
X175946000Y-67818928D01*
X175821518Y-67831188D01*
X175701820Y-67867498D01*
X175591506Y-67926463D01*
X175494815Y-68005815D01*
X175415463Y-68102506D01*
X175356498Y-68212820D01*
X175320188Y-68332518D01*
X175307928Y-68457000D01*
X174906725Y-68457000D01*
X177992873Y-65370853D01*
X178022838Y-65371834D01*
X178146251Y-65351458D01*
X179740995Y-64924148D01*
X179858062Y-64880087D01*
X179964284Y-64814035D01*
X180055578Y-64728528D01*
X180128436Y-64626854D01*
X180180060Y-64512920D01*
X180208463Y-64391103D01*
X180212556Y-64266086D01*
X180192180Y-64142673D01*
X179764870Y-62547929D01*
X179751309Y-62511899D01*
X184676464Y-62511899D01*
X184790732Y-62682914D01*
X184994162Y-62886344D01*
X185233371Y-63046178D01*
X185499165Y-63156273D01*
X185781330Y-63212399D01*
X186069024Y-63212399D01*
X186351189Y-63156273D01*
X186616983Y-63046178D01*
X186856192Y-62886344D01*
X187059622Y-62682914D01*
X187219456Y-62443705D01*
X187329551Y-62177911D01*
X187363812Y-62005671D01*
X187397047Y-62172756D01*
X187557988Y-62561302D01*
X187791637Y-62910983D01*
X188089017Y-63208363D01*
X188438698Y-63442012D01*
X188827244Y-63602953D01*
X189239721Y-63685000D01*
X189660279Y-63685000D01*
X190072756Y-63602953D01*
X190461302Y-63442012D01*
X190810983Y-63208363D01*
X190940000Y-63079346D01*
X190939969Y-101294187D01*
X190661302Y-101107988D01*
X190272756Y-100947047D01*
X189860279Y-100865000D01*
X189439721Y-100865000D01*
X189027244Y-100947047D01*
X188638698Y-101107988D01*
X188289017Y-101341637D01*
X187991637Y-101639017D01*
X187757988Y-101988698D01*
X187597047Y-102377244D01*
X187515000Y-102789721D01*
X187515000Y-103210279D01*
X187597047Y-103622756D01*
X187757988Y-104011302D01*
X187991637Y-104360983D01*
X188020654Y-104390000D01*
X126837396Y-104390000D01*
X126971637Y-104255759D01*
X127128680Y-104020727D01*
X127236853Y-103759574D01*
X127292000Y-103482335D01*
X127292000Y-103199665D01*
X127236853Y-102922426D01*
X127128680Y-102661273D01*
X126971637Y-102426241D01*
X126771759Y-102226363D01*
X126745072Y-102208531D01*
X126745072Y-102107041D01*
X126811494Y-102071537D01*
X126908185Y-101992185D01*
X126987537Y-101895494D01*
X127046502Y-101785180D01*
X127082812Y-101665482D01*
X127095072Y-101541000D01*
X127095072Y-100041000D01*
X127082812Y-99916518D01*
X127046502Y-99796820D01*
X126987537Y-99686506D01*
X126908185Y-99589815D01*
X126811494Y-99510463D01*
X126701180Y-99451498D01*
X126666573Y-99441000D01*
X126701180Y-99430502D01*
X126811494Y-99371537D01*
X126908185Y-99292185D01*
X126987537Y-99195494D01*
X127019412Y-99135861D01*
X131883200Y-99135861D01*
X131883200Y-99339739D01*
X131922974Y-99539698D01*
X132000995Y-99728056D01*
X132114263Y-99897574D01*
X132258426Y-100041737D01*
X132427944Y-100155005D01*
X132616302Y-100233026D01*
X132816261Y-100272800D01*
X133020139Y-100272800D01*
X133220098Y-100233026D01*
X133408456Y-100155005D01*
X133577974Y-100041737D01*
X133621911Y-99997800D01*
X135032800Y-99997800D01*
X135032800Y-100152539D01*
X135072574Y-100352498D01*
X135150595Y-100540856D01*
X135263863Y-100710374D01*
X135408026Y-100854537D01*
X135577544Y-100967805D01*
X135765902Y-101045826D01*
X135965861Y-101085600D01*
X136169739Y-101085600D01*
X136369698Y-101045826D01*
X136558056Y-100967805D01*
X136727574Y-100854537D01*
X136771511Y-100810600D01*
X181902878Y-100810600D01*
X181940200Y-100814276D01*
X181977522Y-100810600D01*
X181977533Y-100810600D01*
X182089186Y-100799603D01*
X182232447Y-100756146D01*
X182364476Y-100685574D01*
X182480201Y-100590601D01*
X182504004Y-100561597D01*
X186540603Y-96524999D01*
X186569601Y-96501201D01*
X186603648Y-96459715D01*
X186664574Y-96385477D01*
X186735146Y-96253447D01*
X186748463Y-96209546D01*
X186778603Y-96110186D01*
X186789600Y-95998533D01*
X186789600Y-95998523D01*
X186793276Y-95961200D01*
X186789600Y-95923877D01*
X186789600Y-79842201D01*
X187328004Y-79303798D01*
X187357001Y-79280001D01*
X187451974Y-79164276D01*
X187522546Y-79032247D01*
X187566003Y-78888986D01*
X187577000Y-78777333D01*
X187577000Y-78777325D01*
X187580676Y-78740000D01*
X187577000Y-78702675D01*
X187577000Y-74365322D01*
X187580676Y-74327999D01*
X187577000Y-74290676D01*
X187577000Y-74290667D01*
X187566003Y-74179014D01*
X187522546Y-74035753D01*
X187451974Y-73903724D01*
X187357001Y-73787999D01*
X187328003Y-73764201D01*
X186612177Y-73048375D01*
X186618168Y-73033912D01*
X186681000Y-72718033D01*
X186681000Y-72395967D01*
X186618168Y-72080088D01*
X186494918Y-71782537D01*
X186315987Y-71514748D01*
X186088252Y-71287013D01*
X185820463Y-71108082D01*
X185522912Y-70984832D01*
X185207033Y-70922000D01*
X184884967Y-70922000D01*
X184569088Y-70984832D01*
X184271537Y-71108082D01*
X184003748Y-71287013D01*
X183776013Y-71514748D01*
X183597082Y-71782537D01*
X183473832Y-72080088D01*
X183411000Y-72395967D01*
X183411000Y-72718033D01*
X183473832Y-73033912D01*
X183597082Y-73331463D01*
X183776013Y-73599252D01*
X184003748Y-73826987D01*
X184100935Y-73891925D01*
X184090192Y-73921587D01*
X185046000Y-74877395D01*
X185060143Y-74863253D01*
X185239748Y-75042858D01*
X185225605Y-75057000D01*
X185239748Y-75071143D01*
X185060143Y-75250748D01*
X185046000Y-75236605D01*
X185031858Y-75250748D01*
X184852253Y-75071143D01*
X184866395Y-75057000D01*
X183910587Y-74101192D01*
X183646186Y-74196956D01*
X183505296Y-74486571D01*
X183423616Y-74798108D01*
X183404282Y-75119595D01*
X183448039Y-75438675D01*
X183553205Y-75743088D01*
X183646186Y-75917044D01*
X183795223Y-75971024D01*
X183691506Y-76026463D01*
X183594815Y-76105815D01*
X183515463Y-76202506D01*
X183456498Y-76312820D01*
X183420188Y-76432518D01*
X183407928Y-76557000D01*
X183407928Y-78557000D01*
X183420188Y-78681482D01*
X183456498Y-78801180D01*
X183515463Y-78911494D01*
X183594815Y-79008185D01*
X183691506Y-79087537D01*
X183801820Y-79146502D01*
X183921518Y-79182812D01*
X184046000Y-79195072D01*
X184286000Y-79195072D01*
X184286001Y-95537797D01*
X181345999Y-98477800D01*
X133621911Y-98477800D01*
X133577974Y-98433863D01*
X133408456Y-98320595D01*
X133220098Y-98242574D01*
X133020139Y-98202800D01*
X132816261Y-98202800D01*
X132616302Y-98242574D01*
X132427944Y-98320595D01*
X132258426Y-98433863D01*
X132114263Y-98578026D01*
X132000995Y-98747544D01*
X131922974Y-98935902D01*
X131883200Y-99135861D01*
X127019412Y-99135861D01*
X127046502Y-99085180D01*
X127082812Y-98965482D01*
X127095072Y-98841000D01*
X127095072Y-97341000D01*
X127082812Y-97216518D01*
X127046502Y-97096820D01*
X126987537Y-96986506D01*
X126908185Y-96889815D01*
X126811494Y-96810463D01*
X126745072Y-96774959D01*
X126745072Y-96673469D01*
X126771759Y-96655637D01*
X126971637Y-96455759D01*
X127128680Y-96220727D01*
X127236853Y-95959574D01*
X127292000Y-95682335D01*
X127292000Y-95399665D01*
X127236853Y-95122426D01*
X127128680Y-94861273D01*
X126971637Y-94626241D01*
X126771759Y-94426363D01*
X126536727Y-94269320D01*
X126275574Y-94161147D01*
X125998335Y-94106000D01*
X125715665Y-94106000D01*
X125438426Y-94161147D01*
X125177273Y-94269320D01*
X124942241Y-94426363D01*
X124742363Y-94626241D01*
X124585320Y-94861273D01*
X124477147Y-95122426D01*
X124422000Y-95399665D01*
X124422000Y-95682335D01*
X124477147Y-95959574D01*
X124585320Y-96220727D01*
X124742363Y-96455759D01*
X124942241Y-96655637D01*
X124968928Y-96673469D01*
X124968928Y-96774959D01*
X124902506Y-96810463D01*
X124805815Y-96889815D01*
X124726463Y-96986506D01*
X124667498Y-97096820D01*
X124631188Y-97216518D01*
X124618928Y-97341000D01*
X124618928Y-98841000D01*
X124631188Y-98965482D01*
X124667498Y-99085180D01*
X124726463Y-99195494D01*
X124805815Y-99292185D01*
X124902506Y-99371537D01*
X125012820Y-99430502D01*
X125047427Y-99441000D01*
X125012820Y-99451498D01*
X124902506Y-99510463D01*
X124805815Y-99589815D01*
X124726463Y-99686506D01*
X124667498Y-99796820D01*
X124631188Y-99916518D01*
X124618928Y-100041000D01*
X124618928Y-101028127D01*
X124298804Y-100708003D01*
X124275001Y-100678999D01*
X124159276Y-100584026D01*
X124027247Y-100513454D01*
X123883986Y-100469997D01*
X123772333Y-100459000D01*
X123772322Y-100459000D01*
X123735000Y-100455324D01*
X123697678Y-100459000D01*
X120431402Y-100459000D01*
X119886000Y-99913599D01*
X119886000Y-99184000D01*
X120025928Y-99184000D01*
X120038188Y-99308482D01*
X120074498Y-99428180D01*
X120133463Y-99538494D01*
X120212815Y-99635185D01*
X120309506Y-99714537D01*
X120419820Y-99773502D01*
X120539518Y-99809812D01*
X120664000Y-99822072D01*
X121228250Y-99819000D01*
X121387000Y-99660250D01*
X121387000Y-98811000D01*
X121641000Y-98811000D01*
X121641000Y-99660250D01*
X121799750Y-99819000D01*
X122364000Y-99822072D01*
X122488482Y-99809812D01*
X122608180Y-99773502D01*
X122718494Y-99714537D01*
X122815185Y-99635185D01*
X122894537Y-99538494D01*
X122953502Y-99428180D01*
X122989812Y-99308482D01*
X123002072Y-99184000D01*
X122999000Y-98969750D01*
X122840250Y-98811000D01*
X121641000Y-98811000D01*
X121387000Y-98811000D01*
X120187750Y-98811000D01*
X120029000Y-98969750D01*
X120025928Y-99184000D01*
X119886000Y-99184000D01*
X119886000Y-98184000D01*
X120025928Y-98184000D01*
X120029000Y-98398250D01*
X120187750Y-98557000D01*
X121387000Y-98557000D01*
X121387000Y-97707750D01*
X121641000Y-97707750D01*
X121641000Y-98557000D01*
X122840250Y-98557000D01*
X122999000Y-98398250D01*
X123002072Y-98184000D01*
X122989812Y-98059518D01*
X122953502Y-97939820D01*
X122894537Y-97829506D01*
X122815185Y-97732815D01*
X122718494Y-97653463D01*
X122608180Y-97594498D01*
X122488482Y-97558188D01*
X122364000Y-97545928D01*
X121799750Y-97549000D01*
X121641000Y-97707750D01*
X121387000Y-97707750D01*
X121228250Y-97549000D01*
X120664000Y-97545928D01*
X120539518Y-97558188D01*
X120419820Y-97594498D01*
X120309506Y-97653463D01*
X120212815Y-97732815D01*
X120133463Y-97829506D01*
X120074498Y-97939820D01*
X120038188Y-98059518D01*
X120025928Y-98184000D01*
X119886000Y-98184000D01*
X119886000Y-97623322D01*
X119889676Y-97585999D01*
X119886000Y-97548676D01*
X119886000Y-97548667D01*
X119875003Y-97437014D01*
X119831546Y-97293753D01*
X119760974Y-97161724D01*
X119747811Y-97145685D01*
X119689799Y-97074996D01*
X119689795Y-97074992D01*
X119666001Y-97045999D01*
X119637009Y-97022206D01*
X119331777Y-96716975D01*
X119499032Y-96786254D01*
X119756662Y-96837500D01*
X120019338Y-96837500D01*
X120276968Y-96786254D01*
X120519649Y-96685732D01*
X120738057Y-96539797D01*
X120853657Y-96424197D01*
X121687408Y-96424197D01*
X121746686Y-96657812D01*
X121984875Y-96768559D01*
X122240093Y-96830711D01*
X122502533Y-96841876D01*
X122762107Y-96801629D01*
X123008842Y-96711514D01*
X123109314Y-96657812D01*
X123168592Y-96424197D01*
X122428000Y-95683605D01*
X121687408Y-96424197D01*
X120853657Y-96424197D01*
X120923797Y-96354057D01*
X121069732Y-96135649D01*
X121159707Y-95918430D01*
X121220486Y-96084842D01*
X121274188Y-96185314D01*
X121507803Y-96244592D01*
X122248395Y-95504000D01*
X122607605Y-95504000D01*
X123348197Y-96244592D01*
X123581812Y-96185314D01*
X123692559Y-95947125D01*
X123754711Y-95691907D01*
X123765876Y-95429467D01*
X123725629Y-95169893D01*
X123635514Y-94923158D01*
X123581812Y-94822686D01*
X123348197Y-94763408D01*
X122607605Y-95504000D01*
X122248395Y-95504000D01*
X121507803Y-94763408D01*
X121274188Y-94822686D01*
X121163441Y-95060875D01*
X121157658Y-95084622D01*
X121069732Y-94872351D01*
X120923797Y-94653943D01*
X120853657Y-94583803D01*
X121687408Y-94583803D01*
X122428000Y-95324395D01*
X123168592Y-94583803D01*
X123109314Y-94350188D01*
X122871125Y-94239441D01*
X122615907Y-94177289D01*
X122353467Y-94166124D01*
X122093893Y-94206371D01*
X121847158Y-94296486D01*
X121746686Y-94350188D01*
X121687408Y-94583803D01*
X120853657Y-94583803D01*
X120738057Y-94468203D01*
X120519649Y-94322268D01*
X120415000Y-94278921D01*
X120415000Y-79721007D01*
X120419039Y-79679999D01*
X120415000Y-79638991D01*
X120415000Y-79638981D01*
X120402918Y-79516311D01*
X120355172Y-79358913D01*
X120277636Y-79213854D01*
X120173291Y-79086709D01*
X120141427Y-79060559D01*
X111971174Y-70890307D01*
X112001300Y-70738850D01*
X112001300Y-70657491D01*
X124212887Y-70657491D01*
X124255204Y-70952167D01*
X124354198Y-71232927D01*
X124431071Y-71376746D01*
X124682831Y-71457563D01*
X125550395Y-70590000D01*
X125909605Y-70590000D01*
X126777169Y-71457563D01*
X127028929Y-71376746D01*
X127157457Y-71108221D01*
X127231129Y-70819781D01*
X127247113Y-70522509D01*
X127204796Y-70227833D01*
X127105802Y-69947073D01*
X127028929Y-69803254D01*
X126777169Y-69722437D01*
X125909605Y-70590000D01*
X125550395Y-70590000D01*
X124682831Y-69722437D01*
X124431071Y-69803254D01*
X124302543Y-70071779D01*
X124228871Y-70360219D01*
X124212887Y-70657491D01*
X112001300Y-70657491D01*
X112001300Y-70441150D01*
X111943222Y-70149170D01*
X111829297Y-69874131D01*
X111663904Y-69626602D01*
X111453398Y-69416096D01*
X111309580Y-69320000D01*
X111453398Y-69223904D01*
X111580133Y-69097169D01*
X124862437Y-69097169D01*
X124933968Y-69320000D01*
X124862437Y-69542831D01*
X125730000Y-70410395D01*
X126597563Y-69542831D01*
X126526032Y-69320000D01*
X126597563Y-69097169D01*
X125730000Y-68229605D01*
X124862437Y-69097169D01*
X111580133Y-69097169D01*
X111663904Y-69013398D01*
X111829297Y-68765869D01*
X111943222Y-68490830D01*
X112001300Y-68198850D01*
X112001300Y-68117491D01*
X124212887Y-68117491D01*
X124255204Y-68412167D01*
X124354198Y-68692927D01*
X124431071Y-68836746D01*
X124682831Y-68917563D01*
X125550395Y-68050000D01*
X125909605Y-68050000D01*
X126777169Y-68917563D01*
X127028929Y-68836746D01*
X127157457Y-68568221D01*
X127231129Y-68279781D01*
X127247113Y-67982509D01*
X127204796Y-67687833D01*
X127105802Y-67407073D01*
X127028929Y-67263254D01*
X126777169Y-67182437D01*
X125909605Y-68050000D01*
X125550395Y-68050000D01*
X124682831Y-67182437D01*
X124431071Y-67263254D01*
X124302543Y-67531779D01*
X124228871Y-67820219D01*
X124212887Y-68117491D01*
X112001300Y-68117491D01*
X112001300Y-67901150D01*
X111943222Y-67609170D01*
X111829297Y-67334131D01*
X111663904Y-67086602D01*
X111453398Y-66876096D01*
X111290191Y-66767045D01*
X111357563Y-66557169D01*
X110490000Y-65689605D01*
X109622437Y-66557169D01*
X109689809Y-66767045D01*
X109526602Y-66876096D01*
X109316096Y-67086602D01*
X109150703Y-67334131D01*
X109036778Y-67609170D01*
X108978700Y-67901150D01*
X108978700Y-68198850D01*
X109036778Y-68490830D01*
X109150703Y-68765869D01*
X109316096Y-69013398D01*
X109526602Y-69223904D01*
X109670420Y-69320000D01*
X109526602Y-69416096D01*
X109316096Y-69626602D01*
X109150703Y-69874131D01*
X109036778Y-70149170D01*
X108978700Y-70441150D01*
X108978700Y-70738850D01*
X109036778Y-71030830D01*
X109150703Y-71305869D01*
X109316096Y-71553398D01*
X109526602Y-71763904D01*
X109670420Y-71860000D01*
X109526602Y-71956096D01*
X109316096Y-72166602D01*
X109150703Y-72414131D01*
X109036778Y-72689170D01*
X108978700Y-72981150D01*
X108978700Y-73278850D01*
X109036778Y-73570830D01*
X109150703Y-73845869D01*
X109316096Y-74093398D01*
X109526602Y-74303904D01*
X109670420Y-74400000D01*
X109526602Y-74496096D01*
X109316096Y-74706602D01*
X109150703Y-74954131D01*
X109036778Y-75229170D01*
X108978700Y-75521150D01*
X108978700Y-75818850D01*
X109036778Y-76110830D01*
X109150703Y-76385869D01*
X109316096Y-76633398D01*
X109526602Y-76843904D01*
X109670420Y-76940000D01*
X109526602Y-77036096D01*
X109316096Y-77246602D01*
X109150703Y-77494131D01*
X109036778Y-77769170D01*
X108978700Y-78061150D01*
X108978700Y-78358850D01*
X109036778Y-78650830D01*
X109150703Y-78925869D01*
X109316096Y-79173398D01*
X109526602Y-79383904D01*
X109670420Y-79480000D01*
X109526602Y-79576096D01*
X109316096Y-79786602D01*
X109150703Y-80034131D01*
X109036778Y-80309170D01*
X108978700Y-80601150D01*
X108978700Y-80898850D01*
X109036778Y-81190830D01*
X109150703Y-81465869D01*
X109316096Y-81713398D01*
X109526602Y-81923904D01*
X109670420Y-82020000D01*
X109526602Y-82116096D01*
X109316096Y-82326602D01*
X109150703Y-82574131D01*
X109036778Y-82849170D01*
X108978700Y-83141150D01*
X108978700Y-83438850D01*
X109036778Y-83730830D01*
X109150703Y-84005869D01*
X109316096Y-84253398D01*
X109526602Y-84463904D01*
X109670420Y-84560000D01*
X109526602Y-84656096D01*
X109316096Y-84866602D01*
X109150703Y-85114131D01*
X109036778Y-85389170D01*
X108978700Y-85681150D01*
X108978700Y-85978850D01*
X109036778Y-86270830D01*
X109150703Y-86545869D01*
X109316096Y-86793398D01*
X109526602Y-87003904D01*
X109670420Y-87100000D01*
X109526602Y-87196096D01*
X109316096Y-87406602D01*
X109150703Y-87654131D01*
X109036778Y-87929170D01*
X108978700Y-88221150D01*
X108978700Y-88518850D01*
X109036778Y-88810830D01*
X109150703Y-89085869D01*
X109316096Y-89333398D01*
X109526602Y-89543904D01*
X109670420Y-89640000D01*
X109526602Y-89736096D01*
X109316096Y-89946602D01*
X109150703Y-90194131D01*
X109036778Y-90469170D01*
X108978700Y-90761150D01*
X108978700Y-91058850D01*
X109036778Y-91350830D01*
X109150703Y-91625869D01*
X109316096Y-91873398D01*
X109526602Y-92083904D01*
X109774131Y-92249297D01*
X110049170Y-92363222D01*
X110341150Y-92421300D01*
X110638850Y-92421300D01*
X110930830Y-92363222D01*
X111205869Y-92249297D01*
X111453398Y-92083904D01*
X111663904Y-91873398D01*
X111829297Y-91625869D01*
X111943222Y-91350830D01*
X112001300Y-91058850D01*
X112001300Y-90761150D01*
X111943222Y-90469170D01*
X111829297Y-90194131D01*
X111663904Y-89946602D01*
X111453398Y-89736096D01*
X111309580Y-89640000D01*
X111453398Y-89543904D01*
X111663904Y-89333398D01*
X111798400Y-89132111D01*
X111862226Y-89195937D01*
X112031744Y-89309205D01*
X112220102Y-89387226D01*
X112420061Y-89427000D01*
X112623939Y-89427000D01*
X112823898Y-89387226D01*
X113012256Y-89309205D01*
X113106200Y-89246434D01*
X113200144Y-89309205D01*
X113388502Y-89387226D01*
X113588461Y-89427000D01*
X113792339Y-89427000D01*
X113992298Y-89387226D01*
X114048001Y-89364153D01*
X114048000Y-94408029D01*
X113957943Y-94468203D01*
X113772203Y-94653943D01*
X113626268Y-94872351D01*
X113525746Y-95115032D01*
X113474500Y-95372662D01*
X113474500Y-95635338D01*
X113525746Y-95892968D01*
X113626268Y-96135649D01*
X113772203Y-96354057D01*
X113957943Y-96539797D01*
X114176351Y-96685732D01*
X114419032Y-96786254D01*
X114676662Y-96837500D01*
X114762699Y-96837500D01*
X115486974Y-97561776D01*
X115341000Y-97707750D01*
X115341000Y-98557000D01*
X115361000Y-98557000D01*
X115361000Y-98811000D01*
X115341000Y-98811000D01*
X115341000Y-99660250D01*
X115499750Y-99819000D01*
X116064000Y-99822072D01*
X116188482Y-99809812D01*
X116308180Y-99773502D01*
X116418494Y-99714537D01*
X116515185Y-99635185D01*
X116594537Y-99538494D01*
X116653502Y-99428180D01*
X116689812Y-99308482D01*
X116702072Y-99184000D01*
X116699000Y-98969750D01*
X116540252Y-98811002D01*
X116699000Y-98811002D01*
X116699000Y-98773802D01*
X116740400Y-98815202D01*
X116740401Y-99710397D01*
X116118799Y-100332000D01*
X112776322Y-100332000D01*
X112738999Y-100328324D01*
X112701676Y-100332000D01*
X112701667Y-100332000D01*
X112590014Y-100342997D01*
X112446753Y-100386454D01*
X112314724Y-100457026D01*
X112198999Y-100551999D01*
X112175201Y-100580997D01*
X111728072Y-101028126D01*
X111728072Y-100041000D01*
X111715812Y-99916518D01*
X111679502Y-99796820D01*
X111620537Y-99686506D01*
X111541185Y-99589815D01*
X111444494Y-99510463D01*
X111334180Y-99451498D01*
X111299573Y-99441000D01*
X111334180Y-99430502D01*
X111444494Y-99371537D01*
X111541185Y-99292185D01*
X111620537Y-99195494D01*
X111626680Y-99184000D01*
X113725928Y-99184000D01*
X113738188Y-99308482D01*
X113774498Y-99428180D01*
X113833463Y-99538494D01*
X113912815Y-99635185D01*
X114009506Y-99714537D01*
X114119820Y-99773502D01*
X114239518Y-99809812D01*
X114364000Y-99822072D01*
X114928250Y-99819000D01*
X115087000Y-99660250D01*
X115087000Y-98811000D01*
X113887750Y-98811000D01*
X113729000Y-98969750D01*
X113725928Y-99184000D01*
X111626680Y-99184000D01*
X111679502Y-99085180D01*
X111715812Y-98965482D01*
X111728072Y-98841000D01*
X111728072Y-98184000D01*
X113725928Y-98184000D01*
X113729000Y-98398250D01*
X113887750Y-98557000D01*
X115087000Y-98557000D01*
X115087000Y-97707750D01*
X114928250Y-97549000D01*
X114364000Y-97545928D01*
X114239518Y-97558188D01*
X114119820Y-97594498D01*
X114009506Y-97653463D01*
X113912815Y-97732815D01*
X113833463Y-97829506D01*
X113774498Y-97939820D01*
X113738188Y-98059518D01*
X113725928Y-98184000D01*
X111728072Y-98184000D01*
X111728072Y-97341000D01*
X111715812Y-97216518D01*
X111679502Y-97096820D01*
X111620537Y-96986506D01*
X111541185Y-96889815D01*
X111444494Y-96810463D01*
X111378072Y-96774959D01*
X111378072Y-96673469D01*
X111404759Y-96655637D01*
X111604637Y-96455759D01*
X111761680Y-96220727D01*
X111869853Y-95959574D01*
X111925000Y-95682335D01*
X111925000Y-95399665D01*
X111869853Y-95122426D01*
X111761680Y-94861273D01*
X111604637Y-94626241D01*
X111404759Y-94426363D01*
X111169727Y-94269320D01*
X110908574Y-94161147D01*
X110631335Y-94106000D01*
X110348665Y-94106000D01*
X110071426Y-94161147D01*
X109810273Y-94269320D01*
X109575241Y-94426363D01*
X109375363Y-94626241D01*
X109218320Y-94861273D01*
X109110147Y-95122426D01*
X109055000Y-95399665D01*
X109055000Y-95682335D01*
X109110147Y-95959574D01*
X109218320Y-96220727D01*
X109375363Y-96455759D01*
X109575241Y-96655637D01*
X109601928Y-96673469D01*
X109601928Y-96774959D01*
X109535506Y-96810463D01*
X109438815Y-96889815D01*
X109359463Y-96986506D01*
X109300498Y-97096820D01*
X109264188Y-97216518D01*
X109251928Y-97341000D01*
X109251928Y-98841000D01*
X109264188Y-98965482D01*
X109300498Y-99085180D01*
X109359463Y-99195494D01*
X109438815Y-99292185D01*
X109535506Y-99371537D01*
X109645820Y-99430502D01*
X109680427Y-99441000D01*
X109645820Y-99451498D01*
X109535506Y-99510463D01*
X109438815Y-99589815D01*
X109359463Y-99686506D01*
X109300498Y-99796820D01*
X109264188Y-99916518D01*
X109251928Y-100041000D01*
X109251928Y-101541000D01*
X109264188Y-101665482D01*
X109300498Y-101785180D01*
X109359463Y-101895494D01*
X109438815Y-101992185D01*
X109535506Y-102071537D01*
X109601928Y-102107041D01*
X109601928Y-102208531D01*
X109575241Y-102226363D01*
X109375363Y-102426241D01*
X109218320Y-102661273D01*
X109110147Y-102922426D01*
X109055000Y-103199665D01*
X109055000Y-103482335D01*
X109110147Y-103759574D01*
X109218320Y-104020727D01*
X109375363Y-104255759D01*
X109509604Y-104390000D01*
X108479346Y-104390000D01*
X108508363Y-104360983D01*
X108742012Y-104011302D01*
X108902953Y-103622756D01*
X108985000Y-103210279D01*
X108985000Y-102789721D01*
X108902953Y-102377244D01*
X108742012Y-101988698D01*
X108508363Y-101639017D01*
X108210983Y-101341637D01*
X107861302Y-101107988D01*
X107472756Y-100947047D01*
X107060279Y-100865000D01*
X106639721Y-100865000D01*
X106227244Y-100947047D01*
X105838698Y-101107988D01*
X105510000Y-101327617D01*
X105510000Y-65577491D01*
X108972887Y-65577491D01*
X109015204Y-65872167D01*
X109114198Y-66152927D01*
X109191071Y-66296746D01*
X109442831Y-66377563D01*
X110310395Y-65510000D01*
X110669605Y-65510000D01*
X111537169Y-66377563D01*
X111788929Y-66296746D01*
X111917457Y-66028221D01*
X111991129Y-65739781D01*
X112007113Y-65442509D01*
X111964796Y-65147833D01*
X111865802Y-64867073D01*
X111788929Y-64723254D01*
X111537169Y-64642437D01*
X110669605Y-65510000D01*
X110310395Y-65510000D01*
X109442831Y-64642437D01*
X109191071Y-64723254D01*
X109062543Y-64991779D01*
X108988871Y-65280219D01*
X108972887Y-65577491D01*
X105510000Y-65577491D01*
X105510000Y-63079346D01*
X105589017Y-63158363D01*
X105938698Y-63392012D01*
X106327244Y-63552953D01*
X106739721Y-63635000D01*
X107160279Y-63635000D01*
X107572756Y-63552953D01*
X107961302Y-63392012D01*
X108310983Y-63158363D01*
X108608363Y-62860983D01*
X108634978Y-62821150D01*
X108978700Y-62821150D01*
X108978700Y-63118850D01*
X109036778Y-63410830D01*
X109150703Y-63685869D01*
X109316096Y-63933398D01*
X109526602Y-64143904D01*
X109689809Y-64252955D01*
X109622437Y-64462831D01*
X110490000Y-65330395D01*
X111357563Y-64462831D01*
X111290191Y-64252955D01*
X111453398Y-64143904D01*
X111663904Y-63933398D01*
X111829297Y-63685869D01*
X111943222Y-63410830D01*
X112001300Y-63118850D01*
X112001300Y-62821150D01*
X124218700Y-62821150D01*
X124218700Y-63118850D01*
X124276778Y-63410830D01*
X124390703Y-63685869D01*
X124556096Y-63933398D01*
X124766602Y-64143904D01*
X124910420Y-64240000D01*
X124766602Y-64336096D01*
X124556096Y-64546602D01*
X124390703Y-64794131D01*
X124276778Y-65069170D01*
X124218700Y-65361150D01*
X124218700Y-65658850D01*
X124276778Y-65950830D01*
X124390703Y-66225869D01*
X124556096Y-66473398D01*
X124766602Y-66683904D01*
X124929809Y-66792955D01*
X124862437Y-67002831D01*
X125730000Y-67870395D01*
X126597563Y-67002831D01*
X126530191Y-66792955D01*
X126693398Y-66683904D01*
X126903904Y-66473398D01*
X127069297Y-66225869D01*
X127183222Y-65950830D01*
X127241300Y-65658850D01*
X127241300Y-65361150D01*
X127183222Y-65069170D01*
X127069297Y-64794131D01*
X126903904Y-64546602D01*
X126693398Y-64336096D01*
X126549580Y-64240000D01*
X126693398Y-64143904D01*
X126903904Y-63933398D01*
X127069297Y-63685869D01*
X127183222Y-63410830D01*
X127228715Y-63182116D01*
X128403090Y-63182116D01*
X128423466Y-63305529D01*
X128850776Y-64900273D01*
X128894837Y-65017340D01*
X128960889Y-65123562D01*
X129046396Y-65214856D01*
X129148070Y-65287714D01*
X129262004Y-65339338D01*
X129383821Y-65367741D01*
X129508838Y-65371834D01*
X129632251Y-65351458D01*
X129891572Y-65281973D01*
X133790001Y-69180403D01*
X133790000Y-70976852D01*
X133728169Y-71002463D01*
X133444002Y-71192337D01*
X133202337Y-71434002D01*
X133012463Y-71718169D01*
X132881675Y-72033919D01*
X132815000Y-72369117D01*
X132815000Y-72710883D01*
X132881675Y-73046081D01*
X133012463Y-73361831D01*
X133168261Y-73595000D01*
X133133740Y-73595000D01*
X132846842Y-73652068D01*
X132576589Y-73764010D01*
X132333368Y-73926525D01*
X132126525Y-74133368D01*
X131964010Y-74376589D01*
X131852068Y-74646842D01*
X131795000Y-74933740D01*
X131795000Y-75226260D01*
X131852068Y-75513158D01*
X131964010Y-75783411D01*
X132126525Y-76026632D01*
X132333368Y-76233475D01*
X132576589Y-76395990D01*
X132846842Y-76507932D01*
X133133740Y-76565000D01*
X133426260Y-76565000D01*
X133713158Y-76507932D01*
X133983411Y-76395990D01*
X134226632Y-76233475D01*
X134433475Y-76026632D01*
X134595990Y-75783411D01*
X134707932Y-75513158D01*
X134765000Y-75226260D01*
X134765000Y-74933740D01*
X134707932Y-74646842D01*
X134595990Y-74376589D01*
X134528110Y-74275000D01*
X134720883Y-74275000D01*
X135056081Y-74208325D01*
X135371831Y-74077537D01*
X135655998Y-73887663D01*
X135897663Y-73645998D01*
X136087537Y-73361831D01*
X136218325Y-73046081D01*
X136285000Y-72710883D01*
X136285000Y-72369117D01*
X136218325Y-72033919D01*
X136087537Y-71718169D01*
X135897663Y-71434002D01*
X135655998Y-71192337D01*
X135371831Y-71002463D01*
X135310000Y-70976852D01*
X135310000Y-68902922D01*
X135313676Y-68865599D01*
X135310000Y-68828276D01*
X135310000Y-68828267D01*
X135299003Y-68716614D01*
X135255546Y-68573353D01*
X135216544Y-68500386D01*
X135184974Y-68441323D01*
X135113799Y-68354597D01*
X135090001Y-68325599D01*
X135061003Y-68301801D01*
X131513772Y-64754571D01*
X131541578Y-64728528D01*
X131614436Y-64626854D01*
X131666060Y-64512920D01*
X131694463Y-64391103D01*
X131698556Y-64266086D01*
X131678180Y-64142673D01*
X131250870Y-62547929D01*
X131206809Y-62430862D01*
X131140757Y-62324640D01*
X131055250Y-62233346D01*
X130953576Y-62160488D01*
X130839642Y-62108864D01*
X130717825Y-62080461D01*
X130592808Y-62076368D01*
X130469395Y-62096744D01*
X128874651Y-62524054D01*
X128757584Y-62568115D01*
X128651362Y-62634167D01*
X128560068Y-62719674D01*
X128487210Y-62821348D01*
X128435586Y-62935282D01*
X128407183Y-63057099D01*
X128403090Y-63182116D01*
X127228715Y-63182116D01*
X127241300Y-63118850D01*
X127241300Y-62821150D01*
X127183222Y-62529170D01*
X127069297Y-62254131D01*
X126903904Y-62006602D01*
X126693398Y-61796096D01*
X126445869Y-61630703D01*
X126170830Y-61516778D01*
X125878850Y-61458700D01*
X125581150Y-61458700D01*
X125289170Y-61516778D01*
X125014131Y-61630703D01*
X124766602Y-61796096D01*
X124556096Y-62006602D01*
X124390703Y-62254131D01*
X124276778Y-62529170D01*
X124218700Y-62821150D01*
X112001300Y-62821150D01*
X111943222Y-62529170D01*
X111829297Y-62254131D01*
X111663904Y-62006602D01*
X111453398Y-61796096D01*
X111205869Y-61630703D01*
X110930830Y-61516778D01*
X110638850Y-61458700D01*
X110341150Y-61458700D01*
X110049170Y-61516778D01*
X109774131Y-61630703D01*
X109526602Y-61796096D01*
X109316096Y-62006602D01*
X109150703Y-62254131D01*
X109036778Y-62529170D01*
X108978700Y-62821150D01*
X108634978Y-62821150D01*
X108842012Y-62511302D01*
X109002953Y-62122756D01*
X109085000Y-61710279D01*
X109085000Y-61289721D01*
X109002953Y-60877244D01*
X108842012Y-60488698D01*
X108608363Y-60139017D01*
X108529346Y-60060000D01*
X187920654Y-60060000D01*
X187791637Y-60189017D01*
G36*
X118745001Y-80025869D02*
G01*
X118745000Y-94814384D01*
X118706268Y-94872351D01*
X118618000Y-95085448D01*
X118529732Y-94872351D01*
X118383797Y-94653943D01*
X118198057Y-94468203D01*
X117979649Y-94322268D01*
X117800000Y-94247855D01*
X117800000Y-81275711D01*
X117843937Y-81231774D01*
X117957205Y-81062256D01*
X118035226Y-80873898D01*
X118075000Y-80673939D01*
X118075000Y-80470061D01*
X118035226Y-80270102D01*
X117957205Y-80081744D01*
X117843937Y-79912226D01*
X117699774Y-79768063D01*
X117530256Y-79654795D01*
X117341898Y-79576774D01*
X117141939Y-79537000D01*
X116938061Y-79537000D01*
X116738102Y-79576774D01*
X116584000Y-79640606D01*
X116584000Y-79189711D01*
X116627937Y-79145774D01*
X116741205Y-78976256D01*
X116819226Y-78787898D01*
X116859000Y-78587939D01*
X116859000Y-78384061D01*
X116819226Y-78184102D01*
X116759822Y-78040690D01*
X118745001Y-80025869D01*
G37*
X118745001Y-80025869D02*
X118745000Y-94814384D01*
X118706268Y-94872351D01*
X118618000Y-95085448D01*
X118529732Y-94872351D01*
X118383797Y-94653943D01*
X118198057Y-94468203D01*
X117979649Y-94322268D01*
X117800000Y-94247855D01*
X117800000Y-81275711D01*
X117843937Y-81231774D01*
X117957205Y-81062256D01*
X118035226Y-80873898D01*
X118075000Y-80673939D01*
X118075000Y-80470061D01*
X118035226Y-80270102D01*
X117957205Y-80081744D01*
X117843937Y-79912226D01*
X117699774Y-79768063D01*
X117530256Y-79654795D01*
X117341898Y-79576774D01*
X117141939Y-79537000D01*
X116938061Y-79537000D01*
X116738102Y-79576774D01*
X116584000Y-79640606D01*
X116584000Y-79189711D01*
X116627937Y-79145774D01*
X116741205Y-78976256D01*
X116819226Y-78787898D01*
X116859000Y-78587939D01*
X116859000Y-78384061D01*
X116819226Y-78184102D01*
X116759822Y-78040690D01*
X118745001Y-80025869D01*
G36*
X166582800Y-73068002D02*
G01*
X166606599Y-73097001D01*
X166635597Y-73120799D01*
X166722324Y-73191974D01*
X166854353Y-73262546D01*
X166997614Y-73306003D01*
X167146600Y-73320677D01*
X167183933Y-73317000D01*
X169091091Y-73317000D01*
X169097082Y-73331463D01*
X169276013Y-73599252D01*
X169503748Y-73826987D01*
X169771537Y-74005918D01*
X170069088Y-74129168D01*
X170384967Y-74192000D01*
X170707033Y-74192000D01*
X171022912Y-74129168D01*
X171320463Y-74005918D01*
X171588252Y-73826987D01*
X171604401Y-73810838D01*
X171604401Y-76303162D01*
X171588252Y-76287013D01*
X171320463Y-76108082D01*
X171022912Y-75984832D01*
X170707033Y-75922000D01*
X170384967Y-75922000D01*
X170069088Y-75984832D01*
X169771537Y-76108082D01*
X169503748Y-76287013D01*
X169276013Y-76514748D01*
X169097082Y-76782537D01*
X168973832Y-77080088D01*
X168911000Y-77395967D01*
X168911000Y-77718033D01*
X168973832Y-78033912D01*
X169097082Y-78331463D01*
X169276013Y-78599252D01*
X169503748Y-78826987D01*
X169771537Y-79005918D01*
X170069088Y-79129168D01*
X170384967Y-79192000D01*
X170707033Y-79192000D01*
X171022912Y-79129168D01*
X171320463Y-79005918D01*
X171588252Y-78826987D01*
X171604401Y-78810838D01*
X171604400Y-87391398D01*
X168315799Y-90680000D01*
X161865034Y-90680000D01*
X162037537Y-90421831D01*
X162168325Y-90106081D01*
X162235000Y-89770883D01*
X162235000Y-89429117D01*
X162168325Y-89093919D01*
X162037537Y-88778169D01*
X161847663Y-88494002D01*
X161605998Y-88252337D01*
X161321831Y-88062463D01*
X161260000Y-88036852D01*
X161260000Y-74933740D01*
X161555000Y-74933740D01*
X161555000Y-75226260D01*
X161612068Y-75513158D01*
X161724010Y-75783411D01*
X161886525Y-76026632D01*
X162093368Y-76233475D01*
X162336589Y-76395990D01*
X162606842Y-76507932D01*
X162893740Y-76565000D01*
X163186260Y-76565000D01*
X163473158Y-76507932D01*
X163743411Y-76395990D01*
X163986632Y-76233475D01*
X164193475Y-76026632D01*
X164355990Y-75783411D01*
X164467932Y-75513158D01*
X164525000Y-75226260D01*
X164525000Y-74933740D01*
X164467932Y-74646842D01*
X164355990Y-74376589D01*
X164193475Y-74133368D01*
X163986632Y-73926525D01*
X163743411Y-73764010D01*
X163473158Y-73652068D01*
X163186260Y-73595000D01*
X162893740Y-73595000D01*
X162606842Y-73652068D01*
X162336589Y-73764010D01*
X162093368Y-73926525D01*
X161886525Y-74133368D01*
X161724010Y-74376589D01*
X161612068Y-74646842D01*
X161555000Y-74933740D01*
X161260000Y-74933740D01*
X161260000Y-71563148D01*
X161321831Y-71537537D01*
X161605998Y-71347663D01*
X161847663Y-71105998D01*
X162037537Y-70821831D01*
X162168325Y-70506081D01*
X162235000Y-70170883D01*
X162235000Y-69829117D01*
X162168325Y-69493919D01*
X162037537Y-69178169D01*
X161992923Y-69111400D01*
X162626199Y-69111400D01*
X166582800Y-73068002D01*
G37*
X166582800Y-73068002D02*
X166606599Y-73097001D01*
X166635597Y-73120799D01*
X166722324Y-73191974D01*
X166854353Y-73262546D01*
X166997614Y-73306003D01*
X167146600Y-73320677D01*
X167183933Y-73317000D01*
X169091091Y-73317000D01*
X169097082Y-73331463D01*
X169276013Y-73599252D01*
X169503748Y-73826987D01*
X169771537Y-74005918D01*
X170069088Y-74129168D01*
X170384967Y-74192000D01*
X170707033Y-74192000D01*
X171022912Y-74129168D01*
X171320463Y-74005918D01*
X171588252Y-73826987D01*
X171604401Y-73810838D01*
X171604401Y-76303162D01*
X171588252Y-76287013D01*
X171320463Y-76108082D01*
X171022912Y-75984832D01*
X170707033Y-75922000D01*
X170384967Y-75922000D01*
X170069088Y-75984832D01*
X169771537Y-76108082D01*
X169503748Y-76287013D01*
X169276013Y-76514748D01*
X169097082Y-76782537D01*
X168973832Y-77080088D01*
X168911000Y-77395967D01*
X168911000Y-77718033D01*
X168973832Y-78033912D01*
X169097082Y-78331463D01*
X169276013Y-78599252D01*
X169503748Y-78826987D01*
X169771537Y-79005918D01*
X170069088Y-79129168D01*
X170384967Y-79192000D01*
X170707033Y-79192000D01*
X171022912Y-79129168D01*
X171320463Y-79005918D01*
X171588252Y-78826987D01*
X171604401Y-78810838D01*
X171604400Y-87391398D01*
X168315799Y-90680000D01*
X161865034Y-90680000D01*
X162037537Y-90421831D01*
X162168325Y-90106081D01*
X162235000Y-89770883D01*
X162235000Y-89429117D01*
X162168325Y-89093919D01*
X162037537Y-88778169D01*
X161847663Y-88494002D01*
X161605998Y-88252337D01*
X161321831Y-88062463D01*
X161260000Y-88036852D01*
X161260000Y-74933740D01*
X161555000Y-74933740D01*
X161555000Y-75226260D01*
X161612068Y-75513158D01*
X161724010Y-75783411D01*
X161886525Y-76026632D01*
X162093368Y-76233475D01*
X162336589Y-76395990D01*
X162606842Y-76507932D01*
X162893740Y-76565000D01*
X163186260Y-76565000D01*
X163473158Y-76507932D01*
X163743411Y-76395990D01*
X163986632Y-76233475D01*
X164193475Y-76026632D01*
X164355990Y-75783411D01*
X164467932Y-75513158D01*
X164525000Y-75226260D01*
X164525000Y-74933740D01*
X164467932Y-74646842D01*
X164355990Y-74376589D01*
X164193475Y-74133368D01*
X163986632Y-73926525D01*
X163743411Y-73764010D01*
X163473158Y-73652068D01*
X163186260Y-73595000D01*
X162893740Y-73595000D01*
X162606842Y-73652068D01*
X162336589Y-73764010D01*
X162093368Y-73926525D01*
X161886525Y-74133368D01*
X161724010Y-74376589D01*
X161612068Y-74646842D01*
X161555000Y-74933740D01*
X161260000Y-74933740D01*
X161260000Y-71563148D01*
X161321831Y-71537537D01*
X161605998Y-71347663D01*
X161847663Y-71105998D01*
X162037537Y-70821831D01*
X162168325Y-70506081D01*
X162235000Y-70170883D01*
X162235000Y-69829117D01*
X162168325Y-69493919D01*
X162037537Y-69178169D01*
X161992923Y-69111400D01*
X162626199Y-69111400D01*
X166582800Y-73068002D01*
G36*
X139230653Y-89099055D02*
G01*
X139165000Y-89429117D01*
X139165000Y-89770883D01*
X139231675Y-90106081D01*
X139353669Y-90400600D01*
X139303602Y-90400600D01*
X131682004Y-82779003D01*
X131658201Y-82749999D01*
X131542476Y-82655026D01*
X131410447Y-82584454D01*
X131267186Y-82540997D01*
X131155533Y-82530000D01*
X131155522Y-82530000D01*
X131118200Y-82526324D01*
X131080878Y-82530000D01*
X127039810Y-82530000D01*
X126903904Y-82326602D01*
X126693398Y-82116096D01*
X126549580Y-82020000D01*
X126693398Y-81923904D01*
X126903904Y-81713398D01*
X127039810Y-81510000D01*
X131641599Y-81510000D01*
X139230653Y-89099055D01*
G37*
X139230653Y-89099055D02*
X139165000Y-89429117D01*
X139165000Y-89770883D01*
X139231675Y-90106081D01*
X139353669Y-90400600D01*
X139303602Y-90400600D01*
X131682004Y-82779003D01*
X131658201Y-82749999D01*
X131542476Y-82655026D01*
X131410447Y-82584454D01*
X131267186Y-82540997D01*
X131155533Y-82530000D01*
X131155522Y-82530000D01*
X131118200Y-82526324D01*
X131080878Y-82530000D01*
X127039810Y-82530000D01*
X126903904Y-82326602D01*
X126693398Y-82116096D01*
X126549580Y-82020000D01*
X126693398Y-81923904D01*
X126903904Y-81713398D01*
X127039810Y-81510000D01*
X131641599Y-81510000D01*
X139230653Y-89099055D01*
G36*
X170870018Y-70954420D02*
G01*
X170707033Y-70922000D01*
X170384967Y-70922000D01*
X170069088Y-70984832D01*
X169771537Y-71108082D01*
X169503748Y-71287013D01*
X169276013Y-71514748D01*
X169097082Y-71782537D01*
X169091091Y-71797000D01*
X167461402Y-71797000D01*
X163711190Y-68046789D01*
X167962388Y-68046789D01*
X170870018Y-70954420D01*
G37*
X170870018Y-70954420D02*
X170707033Y-70922000D01*
X170384967Y-70922000D01*
X170069088Y-70984832D01*
X169771537Y-71108082D01*
X169503748Y-71287013D01*
X169276013Y-71514748D01*
X169097082Y-71782537D01*
X169091091Y-71797000D01*
X167461402Y-71797000D01*
X163711190Y-68046789D01*
X167962388Y-68046789D01*
X170870018Y-70954420D01*
G36*
X175395732Y-62682914D02*
G01*
X175599162Y-62886344D01*
X175838371Y-63046178D01*
X176104165Y-63156273D01*
X176386330Y-63212399D01*
X176674024Y-63212399D01*
X176917685Y-63163932D01*
X176917090Y-63182116D01*
X176937466Y-63305529D01*
X177142689Y-64071433D01*
X173238998Y-67975125D01*
X173210000Y-67998923D01*
X173186202Y-68027921D01*
X173186201Y-68027922D01*
X173115026Y-68114648D01*
X173044454Y-68246678D01*
X173018416Y-68332518D01*
X173012689Y-68351399D01*
X173000998Y-68389939D01*
X172986324Y-68538924D01*
X172990001Y-68576257D01*
X172990001Y-70137399D01*
X169929823Y-67077222D01*
X169929823Y-65035661D01*
X170345995Y-64924148D01*
X170463062Y-64880087D01*
X170569284Y-64814035D01*
X170660578Y-64728528D01*
X170733436Y-64626854D01*
X170785060Y-64512920D01*
X170813463Y-64391103D01*
X170817556Y-64266086D01*
X170797180Y-64142673D01*
X170369870Y-62547929D01*
X170356309Y-62511899D01*
X175281464Y-62511899D01*
X175395732Y-62682914D01*
G37*
X175395732Y-62682914D02*
X175599162Y-62886344D01*
X175838371Y-63046178D01*
X176104165Y-63156273D01*
X176386330Y-63212399D01*
X176674024Y-63212399D01*
X176917685Y-63163932D01*
X176917090Y-63182116D01*
X176937466Y-63305529D01*
X177142689Y-64071433D01*
X173238998Y-67975125D01*
X173210000Y-67998923D01*
X173186202Y-68027921D01*
X173186201Y-68027922D01*
X173115026Y-68114648D01*
X173044454Y-68246678D01*
X173018416Y-68332518D01*
X173012689Y-68351399D01*
X173000998Y-68389939D01*
X172986324Y-68538924D01*
X172990001Y-68576257D01*
X172990001Y-70137399D01*
X169929823Y-67077222D01*
X169929823Y-65035661D01*
X170345995Y-64924148D01*
X170463062Y-64880087D01*
X170569284Y-64814035D01*
X170660578Y-64728528D01*
X170733436Y-64626854D01*
X170785060Y-64512920D01*
X170813463Y-64391103D01*
X170817556Y-64266086D01*
X170797180Y-64142673D01*
X170369870Y-62547929D01*
X170356309Y-62511899D01*
X175281464Y-62511899D01*
X175395732Y-62682914D01*
G36*
X155845732Y-62682914D02*
G01*
X156049162Y-62886344D01*
X156288371Y-63046178D01*
X156554165Y-63156273D01*
X156836330Y-63212399D01*
X157124024Y-63212399D01*
X157125917Y-63212023D01*
X157141355Y-63305529D01*
X157568665Y-64900273D01*
X157612726Y-65017340D01*
X157678778Y-65123562D01*
X157764285Y-65214856D01*
X157865959Y-65287714D01*
X157979893Y-65339338D01*
X158101710Y-65367741D01*
X158226727Y-65371834D01*
X158350140Y-65351458D01*
X159116044Y-65146235D01*
X161561209Y-67591400D01*
X154561924Y-67591400D01*
X151266575Y-64296052D01*
X151267556Y-64266086D01*
X151247180Y-64142673D01*
X150819870Y-62547929D01*
X150806309Y-62511899D01*
X155731464Y-62511899D01*
X155845732Y-62682914D01*
G37*
X155845732Y-62682914D02*
X156049162Y-62886344D01*
X156288371Y-63046178D01*
X156554165Y-63156273D01*
X156836330Y-63212399D01*
X157124024Y-63212399D01*
X157125917Y-63212023D01*
X157141355Y-63305529D01*
X157568665Y-64900273D01*
X157612726Y-65017340D01*
X157678778Y-65123562D01*
X157764285Y-65214856D01*
X157865959Y-65287714D01*
X157979893Y-65339338D01*
X158101710Y-65367741D01*
X158226727Y-65371834D01*
X158350140Y-65351458D01*
X159116044Y-65146235D01*
X161561209Y-67591400D01*
X154561924Y-67591400D01*
X151266575Y-64296052D01*
X151267556Y-64266086D01*
X151247180Y-64142673D01*
X150819870Y-62547929D01*
X150806309Y-62511899D01*
X155731464Y-62511899D01*
X155845732Y-62682914D01*
G36*
X145545732Y-62694914D02*
G01*
X145749162Y-62898344D01*
X145988371Y-63058178D01*
X146254165Y-63168273D01*
X146536330Y-63224399D01*
X146824024Y-63224399D01*
X147106189Y-63168273D01*
X147371983Y-63058178D01*
X147611192Y-62898344D01*
X147814622Y-62694914D01*
X147936908Y-62511899D01*
X148489014Y-62511899D01*
X148443651Y-62524054D01*
X148326584Y-62568115D01*
X148220362Y-62634167D01*
X148129068Y-62719674D01*
X148056210Y-62821348D01*
X148004586Y-62935282D01*
X147976183Y-63057099D01*
X147972090Y-63182116D01*
X147992466Y-63305529D01*
X148419776Y-64900273D01*
X148463837Y-65017340D01*
X148529889Y-65123562D01*
X148615396Y-65214856D01*
X148717070Y-65287714D01*
X148831004Y-65339338D01*
X148952821Y-65367741D01*
X149077838Y-65371834D01*
X149201251Y-65351458D01*
X149967155Y-65146235D01*
X152296897Y-67475977D01*
X152294986Y-67475397D01*
X152183333Y-67464400D01*
X152183322Y-67464400D01*
X152146000Y-67460724D01*
X152108678Y-67464400D01*
X144122924Y-67464400D01*
X140966575Y-64308052D01*
X140967556Y-64278086D01*
X140947180Y-64154673D01*
X140519870Y-62559929D01*
X140501793Y-62511899D01*
X145423446Y-62511899D01*
X145545732Y-62694914D01*
G37*
X145545732Y-62694914D02*
X145749162Y-62898344D01*
X145988371Y-63058178D01*
X146254165Y-63168273D01*
X146536330Y-63224399D01*
X146824024Y-63224399D01*
X147106189Y-63168273D01*
X147371983Y-63058178D01*
X147611192Y-62898344D01*
X147814622Y-62694914D01*
X147936908Y-62511899D01*
X148489014Y-62511899D01*
X148443651Y-62524054D01*
X148326584Y-62568115D01*
X148220362Y-62634167D01*
X148129068Y-62719674D01*
X148056210Y-62821348D01*
X148004586Y-62935282D01*
X147976183Y-63057099D01*
X147972090Y-63182116D01*
X147992466Y-63305529D01*
X148419776Y-64900273D01*
X148463837Y-65017340D01*
X148529889Y-65123562D01*
X148615396Y-65214856D01*
X148717070Y-65287714D01*
X148831004Y-65339338D01*
X148952821Y-65367741D01*
X149077838Y-65371834D01*
X149201251Y-65351458D01*
X149967155Y-65146235D01*
X152296897Y-67475977D01*
X152294986Y-67475397D01*
X152183333Y-67464400D01*
X152183322Y-67464400D01*
X152146000Y-67460724D01*
X152108678Y-67464400D01*
X144122924Y-67464400D01*
X140966575Y-64308052D01*
X140967556Y-64278086D01*
X140947180Y-64154673D01*
X140519870Y-62559929D01*
X140501793Y-62511899D01*
X145423446Y-62511899D01*
X145545732Y-62694914D01*
%TD*%
M02*
