%TF.GenerationSoftware,KiCad,Pcbnew,(5.1.6)-1*%
%TF.CreationDate,2020-10-14T18:33:49+03:00*%
%TF.ProjectId,aplx6.rev2,61706c78-362e-4726-9576-322e6b696361,rev?*%
%TF.SameCoordinates,Original*%
%TF.FileFunction,Other,User*%
%FSLAX46Y46*%
G04 Gerber Fmt 4.6, Leading zero omitted, Abs format (unit mm)*
G04 Created by KiCad (PCBNEW (5.1.6)-1) date 2020-10-14 18:33:49*
%MOMM*%
%LPD*%
G01*
G04 APERTURE LIST*
%ADD10C,0.050000*%
G04 APERTURE END LIST*
D10*
%TO.C,SW3*%
X151360000Y-81680000D02*
X151360000Y-68480000D01*
X164560000Y-81680000D02*
X151360000Y-81680000D01*
X164560000Y-68480000D02*
X164560000Y-81680000D01*
X151360000Y-68480000D02*
X164560000Y-68480000D01*
%TO.C,SW1*%
X131760000Y-81680000D02*
X131760000Y-68480000D01*
X144960000Y-81680000D02*
X131760000Y-81680000D01*
X144960000Y-68480000D02*
X144960000Y-81680000D01*
X131760000Y-68480000D02*
X144960000Y-68480000D01*
%TO.C,SW5*%
X186546000Y-82157000D02*
X169046000Y-82157000D01*
X186546000Y-82157000D02*
X186546000Y-67957000D01*
X169046000Y-67957000D02*
X169046000Y-82157000D01*
X169046000Y-67957000D02*
X186546000Y-67957000D01*
%TO.C,SW6*%
X170960000Y-101380000D02*
X170960000Y-88180000D01*
X184160000Y-101380000D02*
X170960000Y-101380000D01*
X184160000Y-88180000D02*
X184160000Y-101380000D01*
X170960000Y-88180000D02*
X184160000Y-88180000D01*
%TO.C,SW2*%
X131760000Y-101280000D02*
X131760000Y-88080000D01*
X144960000Y-101280000D02*
X131760000Y-101280000D01*
X144960000Y-88080000D02*
X144960000Y-101280000D01*
X131760000Y-88080000D02*
X144960000Y-88080000D01*
%TO.C,SW4*%
X151360000Y-101280000D02*
X151360000Y-88080000D01*
X164560000Y-101280000D02*
X151360000Y-101280000D01*
X164560000Y-88080000D02*
X164560000Y-101280000D01*
X151360000Y-88080000D02*
X164560000Y-88080000D01*
%TD*%
M02*
