M48
; DRILL file {KiCad (5.1.6)-1} date 10/14/20 18:33:53
; FORMAT={-:-/ absolute / inch / decimal}
; #@! TF.CreationDate,2020-10-14T18:33:53+03:00
; #@! TF.GenerationSoftware,Kicad,Pcbnew,(5.1.6)-1
; #@! TF.FileFunction,Plated,1,2,PTH
FMAT,2
INCH
T1C0.0157
T2C0.0320
T3C0.0390
T4C0.0394
T5C0.0430
T6C0.0591
T7C0.0984
%
G90
G05
T1
X4.43Y-3.48
X4.4375Y-3.8825
X4.476Y-3.48
X4.52Y-3.4825
X4.56Y-3.09
X4.6079Y-3.1721
X4.6475Y-4.025
X4.655Y-3.385
X4.675Y-2.975
X4.78Y-3.3825
X5.15Y-3.225
X5.233Y-3.907
X5.357Y-3.939
X5.705Y-2.58
X6.135Y-2.58
X6.595Y-2.75
X6.715Y-2.955
X6.79Y-2.715
T2
X4.52Y-3.76
X4.62Y-3.76
X4.72Y-3.76
X4.82Y-3.76
T3
X5.485Y-2.5093
X5.7748Y-2.4316
X5.4099Y-2.4312
X5.8905Y-2.5088
X6.1803Y-2.4312
X6.2507Y-2.5088
X5.1201Y-2.5088
X7.0301Y-2.5088
X7.3199Y-2.4312
X6.6602Y-2.5088
X6.95Y-2.4312
X6.5405Y-2.4312
T4
X4.35Y-3.7615
X4.35Y-4.0685
X4.955Y-3.7615
X4.955Y-4.0685
X6.7144Y-2.8566
X6.7144Y-3.0534
X7.2853Y-2.8566
X7.2853Y-2.955
X7.2853Y-3.0534
T5
X4.35Y-2.4791
X4.35Y-2.5791
X4.35Y-2.6791
X4.35Y-2.7791
X4.35Y-2.8791
X4.35Y-2.9791
X4.35Y-3.0791
X4.35Y-3.1791
X4.35Y-3.2791
X4.35Y-3.3791
X4.35Y-3.4791
X4.35Y-3.5791
X4.95Y-2.4791
X4.95Y-2.5791
X4.95Y-2.6791
X4.95Y-2.7791
X4.95Y-2.8791
X4.95Y-2.9791
X4.95Y-3.0791
X4.95Y-3.1791
X4.95Y-3.2791
X4.95Y-3.3791
X4.95Y-3.4791
X4.95Y-3.5791
T6
X5.2972Y-3.6276
X5.5472Y-3.5276
X6.0689Y-2.8559
X6.3189Y-2.7559
X6.0689Y-3.6276
X6.3189Y-3.5276
X6.8406Y-3.6315
X7.0906Y-3.5315
X5.2972Y-2.8559
X5.5472Y-2.7559
T7
X7.4665Y-4.0551
X4.2067Y-4.0551
X4.2106Y-2.4213
X7.4587Y-2.4232
T0
M30
